<svg xmlns="http://www.w3.org/2000/svg" viewBox="0 0 32 32"><path id="svg-ico" fill="#ee5586" d="M10.64 6.74h-.05l-2.45-.27a.42.42 0 0 1-.3-.18.43.43 0 0 1-.08-.33l.28-1.55c.02-.12.1-.23.2-.3l1.2-.71.13-.9-.16-.63a.45.45 0 0 1 .32-.53c.23-.05.46.1.53.32l.18.73c.01.05.02.11 0 .17l-.18 1.18a.41.41 0 0 1-.2.3l-1.2.72-.15.88 1.85.21 1.9-1.08 1.21-1.2c-.15-.22-.3-.52-.27-.85.02-.25.16-.61.67-.89.9-.5 1.7-1.58 1.7-1.6.14-.19.41-.23.6-.1s.24.42.1.61a6.93 6.93 0 0 1-1.98 1.85c-.13.07-.22.15-.22.2-.01.13.18.35.28.44a.44.44 0 0 1 .04.65l-1.55 1.56a.36.36 0 0 1-.1.07l-2.09 1.18a.42.42 0 0 1-.2.05zM.62 15.11a.43.43 0 0 1-.4-.27.43.43 0 0 1 .24-.57l2.21-.92a.4.4 0 0 1 .17-.03c.1-.03.78-.27 1.41-.51l.42-4c.02-.14.1-.26.21-.33l.25-.14V4.56c0-.24.19-.44.43-.44s.44.2.44.44v4.01c0 .16-.08.3-.21.38l-.27.16-.43 4.05a.45.45 0 0 1-.28.36c-1.23.49-1.67.62-1.85.65l-2.17.91a.53.53 0 0 1-.17.03zm12.87 16.48a.43.43 0 0 1-.35-.18l-1.79-2.44-1.72-.86a.39.39 0 0 1-.11-.09l-.46-.45-1.02-1.2a.44.44 0 0 1-.1-.29V24.9c0-.09.02-.17.07-.25.2-.3.4-.62.47-.78-.04-.14-.05-.3-.04-.44L8 23.2l-1.55-.86h-.33a.43.43 0 0 1-.33-.15l-1.63-1.81a.43.43 0 0 1-.05-.52l.08-.12-1.13-.87-1.94.81a.44.44 0 0 1-.57-.23.43.43 0 0 1 .24-.57l2.18-.91a.44.44 0 0 1 .43.05l1.63 1.27c.18.14.22.38.11.57l-.1.18 1.28 1.43h.26a.5.5 0 0 1 .21.05l2.34 1.27c.18.08.27.28.24.47-.03.14-.04.33-.03.38.06.13.19.37-.51 1.4v.88l.9 1.05.37.38 1.75.87a.4.4 0 0 1 .16.13l1.85 2.52c.14.2.1.47-.1.62a.4.4 0 0 1-.26.1zm6.59-3.16a.43.43 0 0 1-.3-.12l-1.46-1.45a.45.45 0 0 1-.11-.22l-.37-1.63c-.04-.2.05-.4.23-.48l.41-.21.48-1.04.17-.43-.71-.71a.45.45 0 0 1-.13-.29l-.07-1.64-.74-.35-1.44.8a.44.44 0 0 1-.55-.1l-1.36-1.63a.43.43 0 0 1-.1-.25l-.09-1.64c0-.07.01-.15.05-.21l1.54-3.1 1.17-2.78a.38.38 0 0 1 .12-.17l1.46-1.18c.25-.2.66-.98.87-1.46a.4.4 0 0 1 .2-.22l2.84-1.48-.43-1.06a.44.44 0 0 1 .05-.42c2-2.79 2.18-2.7 2.52-2.54.21.11.3.37.2.6a.43.43 0 0 1-.26.21c-.24.22-.97 1.17-1.6 2.04l.45 1.14c.07.18 0 .4-.15.51l-.36.28-2.74 1.42a5.4 5.4 0 0 1-1.06 1.66l-1.36 1.1-1.14 2.72-1.5 3 .07 1.38 1.04 1.24 1.32-.73a.42.42 0 0 1 .4 0l1.18.54c.15.06.24.2.25.37l.08 1.74.78.79c.12.12.16.28.11.44-.03.1-.2.59-.3.78l-.54 1.17a.46.46 0 0 1-.2.2l-.24.13.27 1.17 1.1 1.11c.45-.28.87-.59.96-.68a51 51 0 0 0 .96-2.11c.02-.05.05-.1.09-.14l2.09-2.08 1.1-1.55.82-1.89-.37-1.03-.58-.66a.44.44 0 0 1-.04-.52l.45-.72a.34.34 0 0 1 .08-.1c1.07-.98 1.38-.9 1.54-.86.14.04.3.19.35.33.07.2.3 1.11.44 1.68l.86-.25.03-.2c.04-.16.17-.3.33-.33l2.09-.49c.23-.06.47.1.52.33a.44.44 0 0 1-.32.52l-1.82.43-.03.18a.43.43 0 0 1-.31.33l-1.54.46c-.12.03-.24.01-.34-.04s-.18-.16-.2-.28c-.13-.5-.3-1.19-.43-1.63-.16.12-.36.28-.54.45l-.25.4.42.48.08.14.46 1.27c.03.1.03.22-.02.32l-.9 2.08a.32.32 0 0 1-.05.09l-1.18 1.63-2.07 2.08a26.43 26.43 0 0 1-.98 2.13c-.05.1-.22.33-1.51 1.16a.51.51 0 0 1-.24.07z"/><path fill="#5e686c" d="M16 31.8A15.89 15.89 0 0 1 .13 15.91C.13 7.19 7.25.07 16 .07c9.8 0 15.86 8.24 15.86 15.87 0 8.75-7.12 15.86-15.86 15.86zM16 .93a15 15 0 0 0-15 15 15 15 0 0 0 29.99 0c0-7.21-5.73-15-14.99-15z"/></svg>