<svg xmlns="http://www.w3.org/2000/svg" viewBox="0 0 32 32"><path id="svg-ico" fill="#ee5586" d="M23.14 22.86a3.02 3.02 0 0 0 0-6.04 3.01 3.01 0 0 0 0 6.04zm0-5.17a2.16 2.16 0 0 1 0 4.31 2.16 2.16 0 0 1 0-4.31z"/><path fill="#5e686b" d="M30.37 7.78a.43.43 0 0 0-.3-.13H23.7V1.74c0-.71-.31-1.11-.58-1.32-.8-.63-2.11-.35-2.31-.3l-19.4 7.6H1.4s-.02 0-.03.02h-.01l-.02.01-.02.02h-.01l-.02.02h-.01l-.03.03-.03.03v.01l-.02.02-.01.02-.01.01-.01.03v.01l-.02.03v.01l-.01.03v.01l-.01.03v21.5c0 1.5.92 2.33 2.6 2.33h26.33c.24 0 .43-.2.43-.43V8.08a.42.42 0 0 0-.13-.3zM21.07.93c.26-.06 1.11-.17 1.52.16.17.13.26.34.26.64v5.93l-19 .02L21.08.93zm8.56 30.08H3.74c-1.54 0-1.73-.79-1.73-1.47v-21l27.63-.03V31z"/><path id="svg-ico" fill="#ee5586" d="M6.58 26.13c.24 0 .43-.2.43-.43V12.77a.43.43 0 0 0-.86 0V25.7c0 .24.2.43.43.43z"/></svg>