<svg version="1.1" id="Layer_1" xmlns="http://www.w3.org/2000/svg" x="0" y="0" viewBox="0 0 496.8 372" style="enable-background:new 0 0 496.8 372" xml:space="preserve"><style>.ddoslayers0,.ddoslayers1{fill:none;stroke:gray;stroke-linecap:round;stroke-linejoin:round;stroke-miterlimit:10}.ddoslayers1{stroke-width:2}.ddoslayers3{fill:#ee5586}.ddoslayers4{stroke-width:2}.ddoslayers4,.ddoslayers5{fill:none;stroke:#ee5586;stroke-linecap:round;stroke-linejoin:round;stroke-miterlimit:10}</style><path class="ddoslayers0" d="m436.1 14.7-72.7 51.7C359.3 68.9 356 73 356 81v214.7c0 8 2.8 11.5 7.3 14.6l72.7 45.9"/><path class="ddoslayers1" d="M446.5 365.7c-5.8 0-10.6-4.3-10.6-9.6V14.7c0-5.3 4.7-9.6 10.6-9.6h37.4c5.8 0 10.6 4.3 10.6 9.6v341.4c0 5.3-4.7 9.6-10.6 9.6h-37.4z"/><path class="ddoslayers0" d="m60.7 14.7 72.7 51.7c4.1 2.5 7.3 6.6 7.3 14.6v214.7c0 8-2.8 11.5-7.3 14.6l-72.7 45.9"/><path class="ddoslayers1" d="M12.7 365.7c-5.8 0-10.6-4.3-10.6-9.6V14.7C2.2 9.4 6.9 5 12.7 5h37.4c5.8 0 10.6 4.3 10.6 9.6V356c0 5.3-4.7 9.6-10.6 9.6H12.7v.1z"/><path class="ddoslayers0" d="M128.4 93.3V81.5M123.9 90.3V79M119.1 87.4V76M114.3 84.4V73M109.6 81.4V70M114.2 245.6v44.9c0 2.7 2.3 5.7 4.9 4.9l4.7-1.7c3.2-.9 4.6-3.4 4.6-6v-42c0-2.7-2.2-4.9-4.9-4.9H119c-2.6-.1-4.8 2.1-4.8 4.8h0zM368.3 93.3V81.5M372.9 90.3V79M377.6 87.4V76M382.4 84.4V73M387.2 81.4V70M382.5 245.6v44.9c0 2.7-2.3 5.7-4.9 4.9l-4.7-1.7c-3.2-.9-4.6-3.4-4.6-6v-42c0-2.7 2.2-4.9 4.9-4.9h4.5c2.6-.1 4.8 2.1 4.8 4.8h0z"/><path class="ddoslayers1" d="M229.6 365.7c-5.8 0-10.6-4.3-10.6-9.6V14.7c0-5.3 4.7-9.6 10.6-9.6H267c5.8 0 10.6 4.3 10.6 9.6v341.4c0 5.3-4.7 9.6-10.6 9.6h-37.4z"/><path d="M111.3 188.8h106.8m60.5 0h109.9" style="fill:none;stroke:#d7d7d7;stroke-miterlimit:10"/><circle id="svg-ico" class="ddoslayers3" cx="111.3" cy="188.8" r="2.9"/><circle id="svg-ico" class="ddoslayers3" cx="388.7" cy="188.8" r="2.9"/><g><path id="svg-ico" class="ddoslayers3" d="M218.2 188.8c0 2.8-2.1 5-5 5-2.8 0-5-2.1-5-5s2.1-5 5-5c2.6 0 5 2.1 5 5z"/><animateMotion accumulate="none" additive="replace" begin="0s" calcMode="paced" dur="3s" fill="remove" path="M0, 0 -95 0 0 0" repeatCount="indefinite" restart="always"/></g><g><path id="svg-ico" class="ddoslayers3" d="M288.6 188.8c0 2.8-2.1 5-5 5-2.8 0-5-2.1-5-5s2.1-5 5-5c2.8 0 5 2.1 5 5z"/><animateMotion accumulate="none" additive="replace" begin="0s" calcMode="paced" dur="3s" fill="remove" path="M0, 0 95 0 0 0" repeatCount="indefinite" restart="always"/></g><circle class="ddoslayers4" id="svg-concept" cx="31.4" cy="316.3" r="15"/><circle class="ddoslayers4" id="svg-concept" cx="31.4" cy="256.6" r="3.7"/><circle class="ddoslayers1" cx="31.4" cy="241" r="3.7"/><circle class="ddoslayers5" id="svg-concept" cx="31.4" cy="316.3" r="6"/><path class="ddoslayers0" d="M31.4 274h0c-5.4 0-9.7-4.3-9.7-9.7V47.7c0-5.4 4.3-9.7 9.7-9.7h0c5.4 0 9.7 4.3 9.7 9.7v216.6c0 5.3-4.3 9.7-9.7 9.7z"/><circle class="ddoslayers4" id="svg-concept" cx="248.3" cy="316.3" r="15"/><circle class="ddoslayers4" id="svg-concept" cx="248.3" cy="256.6" r="3.7"/><circle class="ddoslayers1" cx="248.3" cy="241" r="3.7"/><circle class="ddoslayers5" id="svg-concept" cx="248.3" cy="316.3" r="6"/><path class="ddoslayers0" d="M248.3 274h0c-5.4 0-9.7-4.3-9.7-9.7V47.7c0-5.4 4.3-9.7 9.7-9.7h0c5.4 0 9.7 4.3 9.7 9.7v216.6c0 5.3-4.3 9.7-9.7 9.7z"/><circle class="ddoslayers4" id="svg-concept" cx="465.2" cy="316.3" r="15"/><circle class="ddoslayers4" id="svg-concept" cx="465.2" cy="256.6" r="3.7"/><circle class="ddoslayers1" cx="465.2" cy="241" r="3.7"/><circle class="ddoslayers5" id="svg-concept" cx="465.2" cy="316.3" r="6"/><path class="ddoslayers0" d="M465.2 274h0c-5.4 0-9.7-4.3-9.7-9.7V47.7c0-5.4 4.3-9.7 9.7-9.7h0c5.4 0 9.7 4.3 9.7 9.7v216.6c0 5.3-4.3 9.7-9.7 9.7z"/></svg>