<svg version="1.1" id="Layer_1" xmlns="http://www.w3.org/2000/svg" x="0" y="0" viewBox="0 0 608.9 468" style="enable-background:new 0 0 608.9 468" xml:space="preserve"><style>.install0{fill:none;stroke:gray;stroke-linecap:round;stroke-linejoin:round;stroke-miterlimit:10}.install3{fill:#ee5586}.install5,.install6{fill:none;stroke:#ee5586;stroke-width:2;stroke-linecap:round;stroke-linejoin:round;stroke-miterlimit:10}.install6{stroke:gray}</style><path class="install0" d="m81.7 18.2 91.9 65.4c5.1 3.2 9.2 8.3 9.2 18.4v271.2c0 10.1-3.6 14.5-9.2 18.4l-91.9 58M167.3 117.5v-14.9M161.6 113.7V99.4M155.5 110V95.6M149.5 106.3V91.9M143.5 102.4V88.1"/><path class="install0" d="M149.4 309.9v56.7c0 3.4 2.9 7.2 6.1 6.1l6-2.2c4-1.1 5.8-4.2 5.8-7.6v-53c0-3.4-2.8-6.1-6.1-6.1h-5.6a6.1 6.1 0 0 0-6.2 6.1z"/><path d="M143.5 238.2H274" style="fill:none;stroke:gray;stroke-miterlimit:10"/><path class="install0" d="M600.5 360.7H282a8 8 0 0 1-8-8v-229a8 8 0 0 1 8-8h318.5a8 8 0 0 1 8 8v229a8 8 0 0 1-8 8z"/><g><path id="svg-concept" d="M343.1 238.2h196.3" style="fill:#fff;stroke-width:3;stroke-linecap:round;stroke-linejoin:round;stroke-miterlimit:10"/><animate accumulate="none" additive="replace" attributeName="opacity" calcMode="linear" dur="1s" fill="remove" repeatCount="indefinite" restart="always" values="0;1;0"/></g><circle id="svg-ico" class="install3" cx="274" cy="238.2" r="3.7"/><circle id="svg-ico" class="install3" cx="143.5" cy="238.2" r="3.7"/><g><path id="svg-ico" class="install3" d="M214.8 238.2c0 3.3-2.7 6-6 6s-6-2.7-6-6 2.7-6 6-6 6 2.6 6 6z"/><animateMotion accumulate="none" additive="replace" begin="0s" calcMode="paced" dur="2s" fill="remove" path="M53, 0 53 0 -53 0 53 0" repeatCount="indefinite" restart="always"/></g><path class="install0" d="M551.7 248c0 1.4-1.1 2.5-2.5 2.5h-216a2.5 2.5 0 0 1-2.5-2.5v-19.6c0-1.4 1.1-2.5 2.5-2.5h216c1.3 0 2.5 1.1 2.5 2.5V248zM330.8 196.7h167.4m-167.4-18.1h53.7m7 0h33m6.9 0h21.5m70.7-37.8h33m7 0h21.5M391.5 311.7h-60.7m127.7 0h-60.7m106.9 18H403.1m-7.6 0h-33m-10.2 0h-21.5"/><path d="M608.5 232.6v11.2" style="fill:#fff;stroke:gray;stroke-linecap:round;stroke-linejoin:round;stroke-miterlimit:10"/><path id="svg-concept" class="install5" d="M536.1 161.2a14 14 0 1 0 3.4 0"/><path id="svg-concept" class="install5" d="m542.7 167.8-5 14.7-6.7-3.3"/><path class="install6" d="M21.2 462.4c-8 0-14-6-14-13v-432c0-7 6-12 14-12h47c7 0 13 5 13 12v432c0 7-6 13-13 13h-47 0z"/><circle id="svg-concept" class="install5" cx="44.2" cy="399.1" r="19"/><circle id="svg-concept" class="install5" cx="44.4" cy="323.8" r="4.7"/><circle class="install6" cx="44.4" cy="304" r="4.7"/><circle id="svg-concept" cx="44.4" cy="399.4" r="7.6" style="fill:none;stroke-width:2;stroke-miterlimit:10"/><path class="install0" d="M44.1 345.4h0c-7 0-12-5-12-12v-274c0-7 5-12 12-12h0c7 0 13 5 13 12v274c0 7-6 12-13 12h0z"/></svg>