<svg version="1.1" id="Layer_1" xmlns="http://www.w3.org/2000/svg" x="0" y="0" viewBox="0 0 1100.6 600.5" style="enable-background:new 0 0 1100.6 600.5" xml:space="preserve"><style>.iptv1{stroke-width:2}.iptv1,.iptv2{fill:none;stroke:gray;stroke-linecap:round;stroke-linejoin:round;stroke-miterlimit:10}.iptv3{stroke-width:3}.iptv3,.iptv4{fill:none;stroke:#ee5586;stroke-linecap:round;stroke-linejoin:round;stroke-miterlimit:10}</style><path d="M909.7 437.5H192.2c-7.5 0-13.7-4.7-13.7-10.3V67.6c0-5.7 6.2-10.3 13.7-10.3h717.5c7.5 0 13.7 4.7 13.7 10.3V427c0 5.8-6.2 10.5-13.7 10.5h0z" style="fill:none;stroke:gray;stroke-width:3;stroke-linecap:round;stroke-linejoin:round;stroke-miterlimit:10"/><path class="iptv1" d="M895.6 82.1H206.3v330.7h689l.3-330.7h0z"/><path class="iptv2" d="M671.5 115.5h51.3m10.7 0H816m-530.9 67.6h346.1m-346.1-28h111.1m69.4 0h51.2m10.7 0h33.4"/><path class="iptv1" d="M440.4 288.7h-58.1a3.9 3.9 0 0 1-3.9-3.9v-58.1a4 4 0 0 1 3.9-3.9h58.1a4 4 0 0 1 3.9 3.9v58.1c-.1 2.2-1.7 3.9-3.9 3.9h0zm93.1 0h-58.1a3.8 3.8 0 0 1-3.9-3.9v-58.1c0-2.1 1.7-3.9 3.9-3.9h58.1c2.2 0 3.9 1.8 3.9 3.9v58.1a4 4 0 0 1-3.9 3.9h0z"/><path id="svg-concept" class="iptv3" d="M626.5 288.7h-58.1a3.8 3.8 0 0 1-3.9-3.9v-58.1c0-2.1 1.7-3.9 3.9-3.9h58.1c2.2 0 3.9 1.8 3.9 3.9v58.1c-.1 2.2-1.7 3.9-3.9 3.9h0z"/><path class="iptv1" d="M719.6 288.7h-58.1a3.9 3.9 0 0 1-3.9-3.9v-58.1a4 4 0 0 1 3.9-3.9h58.1c2.2 0 3.9 1.8 3.9 3.9v58.1a4 4 0 0 1-3.9 3.9h0z"/><path id="svg-concept" class="iptv3" d="M440.4 374h-58.1a4 4 0 0 1-3.9-3.9V312a4 4 0 0 1 3.9-3.9h58.1a4 4 0 0 1 3.9 3.9v58.1a4 4 0 0 1-3.9 3.9z"/><path class="iptv1" d="M533.5 374h-58.1a3.9 3.9 0 0 1-3.9-3.9V312c0-2.1 1.7-3.9 3.9-3.9h58.1c2.2 0 3.9 1.8 3.9 3.9v58.1a4 4 0 0 1-3.9 3.9zm93 0h-58.1a3.9 3.9 0 0 1-3.9-3.9V312c0-2.1 1.7-3.9 3.9-3.9h58.1c2.2 0 3.9 1.8 3.9 3.9v58.1a4 4 0 0 1-3.9 3.9z"/><path id="svg-concept" class="iptv3" d="M812.2 288.7h-58.1a3.8 3.8 0 0 1-3.9-3.9v-58.1c0-2.1 1.7-3.9 3.9-3.9h58.1c2.2 0 3.9 1.8 3.9 3.9v58.1c-.1 2.2-1.7 3.9-3.9 3.9h0z"/><path class="iptv1" d="M812.2 374h-58.1a3.9 3.9 0 0 1-3.9-3.9V312c0-2.1 1.7-3.9 3.9-3.9h58.1c2.2 0 3.9 1.8 3.9 3.9v58.1a4 4 0 0 1-3.9 3.9z"/><path id="svg-concept" class="iptv3" d="M347 288.7h-58.1a3.8 3.8 0 0 1-3.9-3.9v-58.1c0-2.1 1.7-3.9 3.9-3.9H347c2.2 0 3.9 1.8 3.9 3.9v58.1c0 2.2-1.7 3.9-3.9 3.9h0z"/><path class="iptv1" d="M347 374h-58.1a3.9 3.9 0 0 1-3.9-3.9V312c0-2.1 1.7-3.9 3.9-3.9H347c2.2 0 3.9 1.8 3.9 3.9v58.1c0 2.1-1.7 3.9-3.9 3.9zM719.6 374h-58.1a4 4 0 0 1-3.9-3.9V312a4 4 0 0 1 3.9-3.9h58.1c2.2 0 3.9 1.8 3.9 3.9v58.1a4 4 0 0 1-3.9 3.9zM1085.2 554.4H16.7c-4.7 0-8.7-3.2-8.7-7.4v-58.6c0-4 3.8-7.4 8.7-7.4h1068.6c4.7 0 8.7 3.2 8.7 7.4V547c-.2 4-4 7.4-8.8 7.4h0zM312.6 481.1v73.3M789.3 481.1v73.3"/><path class="iptv2" d="M539 519.1h-33.4l-22-22.1m137.2 0-22 22.1h-33.4"/><path class="iptv2" d="M563.4 532.3h-22.1c-1.2 0-2.2-1-2.2-2.2V508c0-1.2 1-2.2 2.2-2.2h22.1c1.2 0 2.2 1 2.2 2.2v22.1c-.2 1.2-1.1 2.2-2.2 2.2z"/><path id="svg-concept" class="iptv4" d="M469.1 519c0 5.2-4.1 9.3-9.3 9.3-5 0-9.3-4.1-9.3-9.3s4.1-9.2 9.3-9.2 9.3 4.1 9.3 9.2z"/><circle id="svg-concept" class="iptv4" cx="459.7" cy="519" r="2.7"/><path id="svg-concept" class="iptv2" d="M621.7 523c-2.1 0-3.9-1.7-3.9-3.8s1.7-3.8 3.9-3.8c2.1 0 3.9 1.7 3.9 3.8 0 2-1.7 3.8-3.9 3.8z"/><path class="iptv2" d="M635.1 522.7h-.3a2.8 2.8 0 1 1 2.8-2.8v.3c.1 1.5-1.2 2.5-2.5 2.5z"/><path id="svg-concept" class="iptv2" d="M646.2 522.7a2.8 2.8 0 1 1 0-5.6c1.6 0 2.8 1.3 2.8 2.8.1 1.5-1.2 2.8-2.8 2.8z"/><path class="iptv2" d="M657.6 522.7a2.8 2.8 0 1 1 2.8-2.8c.1 1.5-1.2 2.8-2.8 2.8zm.3-10.3h-22.8c-1.4 0-2.6-1-2.6-2.6v-.6c0-1.4 1-2.6 2.6-2.6h22.8c1.4 0 2.6 1 2.6 2.6v.6c0 1.5-1.1 2.6-2.6 2.6zm-98.7 8.3h-13.8c-.9 0-1.6-.6-1.6-1.6v-.4c0-.9.6-1.6 1.6-1.6h13.8c.9 0 1.6.6 1.6 1.6v.4c0 .9-.8 1.6-1.6 1.6z"/><path id="svg-concept" class="iptv3" d="M1059.1 470.5h-97.4s-8.7-9.1-8.7-12.2c0-2.5 1.6-3.5 3.5-3.5h102.6c1.9 0 3.5 1.6 3.5 3.5v8.7c-.1 1.9-1.7 3.5-3.5 3.5h0z"/><path id="svg-concept" d="M685.6 532.6c0 4.3-3.2 7.8-7.1 7.8H426c-3.9 0-7.1-3.5-7.1-7.8v-27.7c0-4.3 3.2-7.8 7.1-7.8h252.6c3.9 0 7.1 3.5 7.1 7.8l-.1 27.7z" style="fill:none;stroke-width:2;stroke-linecap:round;stroke-linejoin:round;stroke-miterlimit:10"/><g><path id="svg-ico" d="M220.9 82.1c0 4.3-3.4 7.8-7.8 7.8a7.7 7.7 0 0 1-7.8-7.8c0-4.3 3.4-7.8 7.8-7.8a8 8 0 0 1 7.8 7.8z"/><animateMotion accumulate="none" additive="replace" begin="0s" calcMode="paced" dur="20s" fill="remove" path="M0, 0 680 0 680 330 680 0 0 0 330" repeatCount="indefinite" restart="always"/></g></svg>