<svg version="1.1" id="Layer_1" xmlns="http://www.w3.org/2000/svg" x="0" y="0" viewBox="0 0 674.4 597" style="enable-background:new 0 0 674.4 597" xml:space="preserve"><style>.monitoring0{fill:none;stroke:gray;stroke-linecap:round;stroke-linejoin:round;stroke-miterlimit:10}.monitoring1,.monitoring2{fill:none;stroke:#ee5586;stroke-miterlimit:10}.monitoring2{stroke-linecap:round;stroke-linejoin:round}.monitoring3,.monitoring4{fill:none;stroke:gray;stroke-miterlimit:10}.monitoring4{stroke:#ee5586;stroke-width:2;stroke-linecap:round;stroke-linejoin:round}</style><path class="monitoring0" d="M176.5 81.5h444.9c22 0 40 18 40 40v420c0 22-18 40-40 40h-570c-22 0-40-18-40-40v-420c0-22 18-40 40-40h50.1"/><path id="svg-concept" class="monitoring1" d="m599.5 495.2-13.3.3"/><path class="monitoring0" d="M565.8 354a21.6 21.6 0 0 1 14.8-34.2c7.9-.9 15.3 2.6 19.7 8.6"/><path id="svg-concept" class="monitoring2" d="m590.8 330.1-5.8 8.6M586.2 341.2c0 1.5-1.5 3-3 3s-3-1.5-3-3 1.5-3 3-3c2 0 3 1.5 3 3zM578.7 405.6l3.6 10M586.2 418.4c0 1.5-1.5 3-3 3s-3-1.5-3-3 1.5-3 3-3c2 0 3 1.5 3 3z"/><path id="svg-concept" class="monitoring1" d="M586.2 495.5c0 1.5-1.5 3-3 3s-3-1.5-3-3 1.5-3 3-3c2 0 3 1.5 3 3z"/><path class="monitoring3" d="M101.5 81.5V71.1h8.4m58.4 0h8.2v10.4"/><path class="monitoring0" d="M71.5 520.7h453.3M71.5 520.7V294.1"/><path id="svg-concept" class="monitoring2" d="M600.4 328.5a21.5 21.5 0 0 1 .2 25.1"/><path class="monitoring0" d="M565.8 430.1a21.6 21.6 0 0 1 14.8-34.2c7.9-.9 15.3 2.6 19.7 8.6"/><path id="svg-concept" class="monitoring2" d="M600.4 404.6a21.5 21.5 0 0 1 .2 25.1"/><path class="monitoring0" d="M565.8 506.2a21.6 21.6 0 0 1 14.8-34.2c7.9-.9 15.3 2.6 19.7 8.6"/><path id="svg-concept" class="monitoring2" d="M600.4 480.7a21.5 21.5 0 0 1 .2 25.1"/><path class="monitoring3" d="m71.5 413.1 16.6-5.8 19.8 10.8 19.6-15 18.5 15.5 17.3-22.6 22.7 50.1 25.5-70.4 20.5 37.4 19-114.9 27.5 198.2 24.3-153.2 18.7 97.7 26-58.3 23.5 30.5 19-16.7 21 16.7 20 12.7 22.5-24.2 24.2 17.9 19.3-6.4h27.8"/><path class="monitoring0" d="M661.4 188h4.3a2 2 0 0 1 2 2v14.8a2 2 0 0 1-2 2h-4.3m0-48h4.3a2 2 0 0 1 2 2v14.8a2 2 0 0 1-2 2h-4.3"/><g><path id="svg-concept" class="monitoring4" d="M103.7 53.9H89.5m99.3 0h-14.2M139 3.7V18m26.1-8.7-8.4 14.1M112.9 9.5l8.4 14m62.5 4.6-14 8.2m-75.3-8.2 13.8 8.4"/><animate accumulate="none" additive="replace" attributeName="opacity" calcMode="linear" dur="1s" fill="remove" repeatCount="indefinite" restart="always" values="0;1;0"/></g><g><path id="svg-ico" d="M524.7 520.7c0 2.8-2.2 5-5 5s-5-2.2-5-5 2.2-5 5-5 5 2.3 5 5z"/><animateMotion accumulate="none" additive="replace" begin="0s" calcMode="paced" dur="20s" fill="remove" path="M0, 0 -448 0 -448 -225 -450 0 0 0 225" repeatCount="indefinite" restart="always"/></g><g><path id="svg-concept" d="M107.1 298.2v199.1" style="fill:none;stroke-width:3;stroke-linecap:round;stroke-linejoin:round;stroke-miterlimit:10"/><animateMotion accumulate="none" additive="replace" begin="0s" calcMode="paced" dur="80s" fill="remove" path="M420, 0 -35 0 420 0" repeatCount="indefinite" restart="always"/></g><path id="svg-concept" class="monitoring4" d="m168.4 52.1-.1 18.9-58.4.1v-19a29.3 29.3 0 0 1 58.5 0z"/><path class="monitoring0" d="M526.7 152.6c0 3.3-2.5 6.1-5.5 6.1H324.7c-3.1 0-5.5-2.7-5.5-6.1v-21.5c0-3.3 2.5-6.1 5.5-6.1h196.5c3.1 0 5.5 2.7 5.5 6.1v21.5z"/><circle id="svg-concept" class="monitoring2" cx="498.2" cy="141.9" r="8.6"/><circle id="svg-concept" class="monitoring2" cx="498.2" cy="141.9" r="3.5"/><path class="monitoring0" d="M473.9 141.9h0c0 3.1-2.5 5.6-5.6 5.6H343.7a5.6 5.6 0 0 1-5.6-5.6h0c0-3.1 2.5-5.6 5.6-5.6h124.6c3.1 0 5.6 2.5 5.6 5.6h0zM526.7 198.2c0 3.3-2.5 6.1-5.5 6.1H324.7c-3.1 0-5.5-2.7-5.5-6.1v-21.5c0-3.3 2.5-6.1 5.5-6.1h196.5c3.1 0 5.5 2.7 5.5 6.1v21.5z"/><circle id="svg-concept" class="monitoring0" cx="498.2" cy="187.4" r="8.6"/><circle id="svg-concept" class="monitoring0" cx="498.2" cy="187.4" r="3.5"/><path class="monitoring0" d="M473.9 187.4h0c0 3.1-2.5 5.6-5.6 5.6H343.7a5.6 5.6 0 0 1-5.6-5.6h0c0-3.1 2.5-5.6 5.6-5.6h124.6c3.1 0 5.6 2.5 5.6 5.6h0zM526.7 243.7c0 3.3-2.5 6.1-5.5 6.1H324.7c-3.1 0-5.5-2.7-5.5-6.1v-21.5c0-3.3 2.5-6.1 5.5-6.1h196.5c3.1 0 5.5 2.7 5.5 6.1v21.5z"/><circle id="svg-concept" class="monitoring2" cx="498.2" cy="233" r="8.6"/><circle id="svg-concept" class="monitoring2" cx="498.2" cy="233" r="3.5"/><path class="monitoring0" d="M473.9 233h0c0 3.1-2.5 5.6-5.6 5.6H343.7a5.6 5.6 0 0 1-5.6-5.6h0c0-3.1 2.5-5.6 5.6-5.6h124.6c3.1 0 5.6 2.5 5.6 5.6h0zM279 152.6c0 3.3-2.5 6.1-5.5 6.1H77c-3.1 0-5.5-2.7-5.5-6.1v-21.5c0-3.3 2.5-6.1 5.5-6.1h196.5c3.1 0 5.5 2.7 5.5 6.1v21.5z"/><circle id="svg-concept" class="monitoring2" cx="250.6" cy="141.9" r="8.6"/><circle id="svg-concept" class="monitoring2" cx="250.6" cy="141.9" r="3.5"/><path class="monitoring0" d="M226.2 141.9h0c0 3.1-2.5 5.6-5.6 5.6H96a5.6 5.6 0 0 1-5.6-5.6h0c0-3.1 2.5-5.6 5.6-5.6h124.6c3.1 0 5.6 2.5 5.6 5.6h0zM279 198.2c0 3.3-2.5 6.1-5.5 6.1H77c-3.1 0-5.5-2.7-5.5-6.1v-21.5c0-3.3 2.5-6.1 5.5-6.1h196.5c3.1 0 5.5 2.7 5.5 6.1v21.5z"/><circle id="svg-concept" class="monitoring0" cx="250.6" cy="187.4" r="8.6"/><circle id="svg-concept" class="monitoring0" cx="250.6" cy="187.4" r="3.5"/><path class="monitoring0" d="M226.2 187.4h0c0 3.1-2.5 5.6-5.6 5.6H96a5.6 5.6 0 0 1-5.6-5.6h0c0-3.1 2.5-5.6 5.6-5.6h124.6c3.1 0 5.6 2.5 5.6 5.6h0zM279 243.7c0 3.3-2.5 6.1-5.5 6.1H77c-3.1 0-5.5-2.7-5.5-6.1v-21.5c0-3.3 2.5-6.1 5.5-6.1h196.5c3.1 0 5.5 2.7 5.5 6.1v21.5z"/><circle id="svg-concept" class="monitoring0" cx="250.6" cy="233" r="8.6"/><circle id="svg-concept" class="monitoring0" cx="250.6" cy="233" r="3.5"/><path class="monitoring0" d="M226.2 233h0c0 3.1-2.5 5.6-5.6 5.6H96a5.6 5.6 0 0 1-5.6-5.6h0c0-3.1 2.5-5.6 5.6-5.6h124.6c3.1 0 5.6 2.5 5.6 5.6h0z"/></svg>