<svg version="1.1" id="Layer_1" xmlns="http://www.w3.org/2000/svg" x="0" y="0" viewBox="0 0 438.8 435.8" style="enable-background:new 0 0 438.8 435.8" xml:space="preserve"><style>.protectvisitors0{fill:none;stroke:gray;stroke-linecap:round;stroke-linejoin:round;stroke-miterlimit:10}.protectvisitors1{stroke-dasharray:8,8}.protectvisitors1,.protectvisitors2,.protectvisitors3{fill:none;stroke:#ee5586;stroke-width:2;stroke-linecap:round;stroke-linejoin:round}.protectvisitors3{stroke-miterlimit:10}.protectvisitors4{fill:#ee5586}</style><path class="protectvisitors0" d="M378.8 114.6c33.8 37.8 54.3 87.7 54.3 142.4H281.4M316 66.2c10.2 5.2 19.9 11.1 29.1 17.8M251.8 45.6c18.2 2.8 35.6 7.8 52 14.9M111.8 72.2c22-12.8 46.4-21.8 72.5-26.1M157.6 257H5.6c0-50 17.2-96.1 46-132.5"/><path id="svg-concept" class="protectvisitors1" d="M219.4 60.5v48.6"/><path id="svg-concept" class="protectvisitors2" d="M219.4 111.4v2.5"/><path id="svg-concept" class="protectvisitors1" d="m88.8 126.1 57.2 57.3"/><path id="svg-concept" class="protectvisitors2" d="m147.8 185.1 1.8 1.8"/><path id="svg-concept" class="protectvisitors1" d="m359 118.5-65.6 65.6"/><path id="svg-concept" class="protectvisitors2" d="m291.7 185.8-1.8 1.8"/><path class="protectvisitors0" d="M44 70.2h67v53.6H44V70.2z"/><path class="protectvisitors0" d="M44 83.6h67m-55-6.2c0 1.2-1 2.2-2.2 2.2s-2.2-1-2.2-2.2 1-2.2 2.2-2.2 2.2 1 2.2 2.2z"/><circle class="protectvisitors0" cx="64.3" cy="77.4" r="2.2"/><circle class="protectvisitors0" cx="74.9" cy="77.4" r="2.2"/><path id="svg-concept" class="protectvisitors3" d="M77.5 117.1c4.9 0 8.9-4 8.9-8.9s-4-8.9-8.9-8.9-8.9 4-8.9 8.9 4 8.9 8.9 8.9zM77.5 106.7v4.4m-4.6-14v-2.9c0-1.6 1.3-2.9 3-2.9h3.3c1.6 0 3 1.3 3 2.9v2.9"/><path class="protectvisitors0" d="M345.5 72h53.3v42.6h-53.3V72z"/><path id="svg-concept" class="protectvisitors3" d="m355.7 99.4 9.9-8.2 9.8 9.9 13.2-13.2"/><path id="svg-concept" class="protectvisitors3" d="M380.4 87.9h8.2v8.2"/><path class="protectvisitors0" d="M372.2 117.2v6.2m-11.6 5.7 11.6-6 11.5 6M193.1 12.5V4.8h58v46.4h-7.7"/><path id="svg-concept" class="protectvisitors3" d="M185 12.9h58v46.4h-58V12.9zM185 24.5h58"/><path class="protectvisitors0" d="M195.4 18.9a1.9 1.9 0 1 1-3.8 0 1.9 1.9 0 0 1 3.8 0z"/><circle class="protectvisitors0" cx="202.6" cy="18.9" r="1.9"/><circle class="protectvisitors0" cx="211.7" cy="18.9" r="1.9"/><g><path id="svg-ico" class="protectvisitors4" d="M149.5 181.7c0 2.8-2.2 5-5 5s-5-2.2-5-5 2.2-5 5-5 5 2.2 5 5z"/><animateMotion accumulate="none" additive="replace" begin="0s" calcMode="paced" dur="1s" fill="remove" path="M0 0 -55 -55 0" repeatCount="indefinite" restart="always"/></g><g><path id="svg-ico" class="protectvisitors4" d="M224.4 107.3c0 2.7-2.2 5-5 5s-5-2.3-5-5c0-2.8 2.2-5 5-5s5 2.2 5 5z"/><animateMotion accumulate="none" additive="replace" begin="1.5s" calcMode="paced" dur="1s" fill="remove" path="M0, 0 0 -45" repeatCount="indefinite" restart="always"/></g><g><path id="svg-ico" class="protectvisitors4" d="M299.1 183.2c0 2.7-2.2 5-5 5s-5-2.3-5-5c0-2.8 2.2-5 5-5 2.7 0 5 2.3 5 5z"/><animateMotion accumulate="none" additive="replace" begin="1.5s" calcMode="paced" dur="1s" fill="remove" path="M0 0 65 -65" repeatCount="indefinite" restart="always"/></g><path class="protectvisitors0" d="m238.3 113.9-3.4 18.1c26.2 6.6 47.5 29.8 56 60.2h9.4l-5.5 34.4-10.1 3.1v1.4c-1.7 46.1-30.3 82.7-65.3 82.7s-63.6-36.6-65.3-82.7v-1.4l-10.2-3.2-5.4-34.4h9.4c8.5-30.3 29.7-53.5 55.9-60.2l-3.3-18.1 37.8.1h0zm-18.9 16.2v-16.2m0 198.1v-43.1"/><path id="svg-concept" d="M219.4 249.9v-57.7m0 57.7-75.5-23.3m75.5 23.3 75.4-23.3m-156.3-34.4h161.8m-161.8 0 5.4 34.4m156.4-34.4-5.5 34.4m-20.9-34.4v27m-108.9-27v27m80.2-27V230m-51-37.8V230" style="fill:none;stroke-width:2;stroke-linecap:round;stroke-linejoin:round;stroke-miterlimit:10"/><path class="protectvisitors0" d="M200.5 113.9h37.8m-29.7 43.9h21.6M203.8 132l4.8 25.8m26.3-25.8-4.7 25.8M187.4 326.2h89.5c18.2 0 32.9 14.8 32.9 32.9V392H180.4M276.9 326.2l32.9 32.9"/><path id="svg-concept" class="protectvisitors3" d="M127.5 296.1c17.6 18 59.9 17.6 59.9 17.6v58.6c0 32.4-60 58.6-60 58.6s-56.9-26.2-56.9-58.6v-58.6s39.4.4 57-17.6"/><path class="protectvisitors0" d="M127.6 315.7c14.1 14.5 44 14.1 44 14.1l.1 39.5c0 23.5-44.4 42.2-44.4 42.2s-41.6-18.8-41.6-42.2l-.1-39.5c.1 0 27.9.3 42-14.1m-24.2 23.4-3.9 3.9m19.5-3.9-21.5 21.5M319 99.1h-18.7V84.5l9.5-51.1 9.2 51.1v14.6zM309.8 88.1V392"/></svg>