<svg xmlns="http://www.w3.org/2000/svg" xml:space="preserve" id="Layer_1" x="0" y="0" version="1.1" viewBox="0 0 1105.7 474"><style>.provisioning0{fill:none;stroke:gray;stroke-linecap:round;stroke-linejoin:round;stroke-miterlimit:10}.provisioning1,.provisioning2{stroke-width:2;stroke-miterlimit:10}.provisioning1{fill:none;stroke:#ee5586;stroke-linecap:round;stroke-linejoin:round}.provisioning2{stroke:gray}.provisioning2,.provisioning3,.provisioning4,.provisioning5{fill:none;stroke-linecap:round;stroke-linejoin:round}.provisioning3{stroke:#ee5586;stroke-miterlimit:10}.provisioning4,.provisioning5{stroke:gray}.provisioning5{stroke-dasharray:3.0246,3.0246}</style><path d="M775.1 271.2h330.4m-755.9 0h404.1M0 271.2h329.3M761 330.3h344.5m-656.3 0h206M0 330.3h344.4m362.6 81h398.5M0 411.3h397.9" class="provisioning0"/><g><path id="svg-concept" d="M66.5 300.7c0 15.9-12.9 28.9-28.8 28.9S8.9 316.7 8.9 300.7s12.9-28.8 28.8-28.8 28.8 12.9 28.8 28.8z" class="provisioning1"/><path id="svg-concept" d="M48.4 300.7a10.71 10.71 0 0 1-21.4 0c0-5.9 4.8-10.7 10.7-10.7 5.9.1 10.7 4.8 10.7 10.7zm18.1.1H48.4m-21.4 0H8.9" class="provisioning1"/><animateTransform fill="remove" accumulate="none" additive="replace" attributeName="transform" begin="0s" calcMode="linear" dur="1s" from="0 37 301" repeatCount="indefinite" restart="always" to="360 38 301" type="rotate"/></g><g><path id="svg-concept" d="M213.7 300.7c0 15.9-12.9 28.9-28.8 28.9s-28.8-12.9-28.8-28.9 12.9-28.8 28.8-28.8 28.8 12.9 28.8 28.8z" class="provisioning1"/><path id="svg-concept" d="M195.6 300.7a10.71 10.71 0 0 1-21.4 0c0-5.9 4.8-10.7 10.7-10.7 5.9.1 10.7 4.8 10.7 10.7h0zm18.1.1h-18.1m-21.4 0H156" class="provisioning1"/><animateTransform fill="remove" accumulate="none" additive="replace" attributeName="transform" begin="0s" calcMode="linear" dur="1s" from="0 185 301" repeatCount="indefinite" restart="always" to="360 185 301" type="rotate"/></g><g><path id="svg-concept" d="M508 300.7c0 15.9-12.9 28.9-28.8 28.9s-28.8-12.9-28.8-28.9 12.9-28.8 28.8-28.8 28.8 12.9 28.8 28.8z" class="provisioning1"/><path id="svg-concept" d="M489.9 300.7a10.71 10.71 0 0 1-21.4 0c0-5.9 4.8-10.7 10.7-10.7 5.9.1 10.7 4.8 10.7 10.7zm18.1.1h-18.1m-21.4 0h-18.1" class="provisioning1"/><animateTransform fill="remove" accumulate="none" additive="replace" attributeName="transform" begin="0.5s" calcMode="linear" dur="1s" from="0 479 301" repeatCount="indefinite" restart="always" to="360 479 301" type="rotate"/></g><g><path id="svg-concept" d="M655.2 300.7c0 15.9-12.9 28.9-28.8 28.9s-28.8-12.9-28.8-28.9 12.9-28.8 28.8-28.8c15.8 0 28.8 12.9 28.8 28.8z" class="provisioning1"/><path id="svg-concept" d="M637 300.7a10.71 10.71 0 0 1-21.4 0c0-5.9 4.8-10.7 10.7-10.7 5.9.1 10.7 4.8 10.7 10.7zm18.2.1H637m-21.4 0h-18.1" class="provisioning1"/><animateTransform fill="remove" accumulate="none" additive="replace" attributeName="transform" begin="0.5s" calcMode="linear" dur="1s" from="0 626 301" repeatCount="indefinite" restart="always" to="360 626 301" type="rotate"/></g><g><path id="svg-concept" d="M949.5 300.7c0 15.9-12.9 28.9-28.8 28.9s-28.8-12.9-28.8-28.9 12.9-28.8 28.8-28.8 28.8 12.9 28.8 28.8z" class="provisioning1"/><path id="svg-concept" d="M931.3 300.7a10.71 10.71 0 0 1-21.4 0 10.71 10.71 0 0 1 21.4 0zm18.2.1h-18.2m-21.3 0h-18.2" class="provisioning1"/><animateTransform fill="remove" accumulate="none" additive="replace" attributeName="transform" begin="0.5s" calcMode="linear" dur="1s" from="0 921 301" repeatCount="indefinite" restart="always" to="360 921 301" type="rotate"/></g><g><path id="svg-concept" d="M1096.6 300.7c0 15.9-12.9 28.9-28.8 28.9s-28.8-12.9-28.8-28.9 12.9-28.8 28.8-28.8 28.8 12.9 28.8 28.8z" class="provisioning1"/><path id="svg-concept" d="M1078.5 300.7a10.71 10.71 0 0 1-21.4 0c0-5.9 4.8-10.7 10.7-10.7 5.9.1 10.7 4.8 10.7 10.7zm18.1.1h-18.1m-21.4 0H1039" class="provisioning1"/><animateTransform fill="remove" accumulate="none" additive="replace" attributeName="transform" begin="0.5s" calcMode="linear" dur="1s" from="0 1068 301" repeatCount="indefinite" restart="always" to="360 1068 301" type="rotate"/></g><g><path d="M686.7 257c0 4.3-3.2 7.8-7.2 7.8H426c-4 0-7.2-3.5-7.2-7.8v-27.8c0-4.3 3.2-7.8 7.2-7.8h253.6c3.9 0 7.2 3.5 7.2 7.8l-.1 27.8h0z" class="provisioning2"/><path id="svg-concept" d="M489 239.9h-1.1c-.7 0-1.2-.5-1.2-1.2v-1.1c0-.7.5-1.2 1.2-1.2h1.1c.7 0 1.2.5 1.2 1.2v1.1c0 .7-.5 1.2-1.2 1.2zm-4.5 13.3H483c-.9 0-1.7-.8-1.7-1.7V250c0-.9.8-1.7 1.7-1.7h1.5c.9 0 1.7.8 1.7 1.7v1.5c0 .9-.8 1.7-1.7 1.7zm65-13.3h-1.1c-.7 0-1.2-.5-1.2-1.2v-1.1c0-.7.5-1.2 1.2-1.2h1.1c.7 0 1.2.5 1.2 1.2v1.1c.1.7-.5 1.2-1.2 1.2zm-4.5 13.3h-1.5c-.9 0-1.7-.8-1.7-1.7V250c0-.9.8-1.7 1.7-1.7h1.5c.9 0 1.7.8 1.7 1.7v1.5c0 .9-.8 1.7-1.7 1.7zm65-13.3h-1c-.7 0-1.2-.5-1.2-1.2v-1.1c0-.7.5-1.2 1.2-1.2h1.1c.7 0 1.2.5 1.2 1.2v1.1c0 .7-.6 1.2-1.3 1.2zm-4.5 13.3H604c-.9 0-1.7-.8-1.7-1.7V250c0-.9.8-1.7 1.7-1.7h1.5c.9 0 1.7.8 1.7 1.7v1.5c0 .9-.8 1.7-1.7 1.7zm47.5-10.1c0 5.1-4.2 9.3-9.3 9.3s-9.3-4.2-9.3-9.3 4.2-9.3 9.3-9.3 9.3 4.2 9.3 9.3z" class="provisioning1"/><path id="svg-concept" d="M647.1 243.1c0 1.9-1.5 3.4-3.4 3.4s-3.4-1.5-3.4-3.4 1.5-3.4 3.4-3.4 3.4 1.5 3.4 3.4zm5.9 0h-5.9m-6.9 0h-5.8" class="provisioning1"/><path d="M433.6 221.4v43.3M672 221.4v43.4m-185.8-8.2h-43.7c-2.2 0-4-1.8-4-4V249c0-2.2 1.8-4 4-4h43.7c2.2 0 4 1.8 4 4v3.6c0 2.2-1.8 4-4 4zM445 239.9h-1c-.7 0-1.2-.5-1.2-1.2v-1.1c0-.7.5-1.2 1.2-1.2h1.1c.7 0 1.2.5 1.2 1.2v1.1c0 .7-.6 1.2-1.3 1.2h0zm7.1 0H451c-.7 0-1.2-.5-1.2-1.2v-1.1c0-.7.5-1.2 1.2-1.2h1.1c.7 0 1.2.5 1.2 1.2v1.1c0 .7-.5 1.2-1.2 1.2zm10 0H461c-.7 0-1.2-.5-1.2-1.2v-1.1c0-.7.5-1.2 1.2-1.2h1.1c.7 0 1.2.5 1.2 1.2v1.1c0 .7-.5 1.2-1.2 1.2zm-17.1-7.7h-1c-.7 0-1.2-.5-1.2-1.2v-1.1c0-.7.5-1.2 1.2-1.2h1.1c.7 0 1.2.5 1.2 1.2v1.1c0 .7-.6 1.2-1.3 1.2h0zm7.1 0H451c-.7 0-1.2-.5-1.2-1.2v-1.1c0-.7.5-1.2 1.2-1.2h1.1c.7 0 1.2.5 1.2 1.2v1.1c0 .7-.5 1.2-1.2 1.2zm36.8 0h-1.1c-.7 0-1.2-.5-1.2-1.2v-1.1c0-.7.5-1.2 1.2-1.2h1.1c.7 0 1.2.5 1.2 1.2v1.1c.1.7-.5 1.2-1.2 1.2zm-19.7 7.7h-1.1c-.7 0-1.2-.5-1.2-1.2v-1.1c0-.7.5-1.2 1.2-1.2h1.1c.7 0 1.2.5 1.2 1.2v1.1c0 .7-.5 1.2-1.2 1.2zm7 0h-1.1c-.7 0-1.2-.5-1.2-1.2v-1.1c0-.7.5-1.2 1.2-1.2h1.1c.7 0 1.2.5 1.2 1.2v1.1c0 .7-.6 1.2-1.2 1.2z" class="provisioning0"/><path d="M476.3 239.9h-1.1c-.7 0-1.2-.5-1.2-1.2v-1.1c0-.7.5-1.2 1.2-1.2h1.1c.7 0 1.2.5 1.2 1.2v1.1c0 .7-.6 1.2-1.2 1.2zm0-7.7h-14.6c-.7 0-1.2-.5-1.2-1.2v-1.1c0-.7.5-1.2 1.2-1.2h14.6c.7 0 1.2.5 1.2 1.2v1.1c0 .7-.6 1.2-1.2 1.2zM456.7 245v11.6m18.8-3.4H474c-.9 0-1.7-.8-1.7-1.7V250c0-.9.8-1.7 1.7-1.7h1.5c.9 0 1.7.8 1.7 1.7v1.5c0 .9-.8 1.7-1.7 1.7zm71.3 3.4h-43.7c-2.2 0-4-1.8-4-4V249c0-2.2 1.8-4 4-4h43.7c2.2 0 4 1.8 4 4v3.6c0 2.2-1.8 4-4 4zm-41.2-16.7h-1.1c-.7 0-1.2-.5-1.2-1.2v-1.1c0-.7.5-1.2 1.2-1.2h1.1c.7 0 1.2.5 1.2 1.2v1.1c0 .7-.6 1.2-1.2 1.2zm7 0h-1.1c-.7 0-1.2-.5-1.2-1.2v-1.1c0-.7.5-1.2 1.2-1.2h1.1c.7 0 1.2.5 1.2 1.2v1.1c.1.7-.5 1.2-1.2 1.2zm10 0h-1.1c-.7 0-1.2-.5-1.2-1.2v-1.1c0-.7.5-1.2 1.2-1.2h1.1c.7 0 1.2.5 1.2 1.2v1.1c0 .7-.5 1.2-1.2 1.2zm-17-7.7h-1.1c-.7 0-1.2-.5-1.2-1.2v-1.1c0-.7.5-1.2 1.2-1.2h1.1c.7 0 1.2.5 1.2 1.2v1.1c0 .7-.6 1.2-1.2 1.2zm7 0h-1.1c-.7 0-1.2-.5-1.2-1.2v-1.1c0-.7.5-1.2 1.2-1.2h1.1c.7 0 1.2.5 1.2 1.2v1.1c.1.7-.5 1.2-1.2 1.2zm36.8 0h-1.1c-.7 0-1.2-.5-1.2-1.2v-1.1c0-.7.5-1.2 1.2-1.2h1.1c.7 0 1.2.5 1.2 1.2v1.1c.1.7-.5 1.2-1.2 1.2zm-19.7 7.7h-1.1c-.7 0-1.2-.5-1.2-1.2v-1.1c0-.7.5-1.2 1.2-1.2h1.1c.7 0 1.2.5 1.2 1.2v1.1c0 .7-.5 1.2-1.2 1.2zm7 0h-1.1c-.7 0-1.2-.5-1.2-1.2v-1.1c0-.7.5-1.2 1.2-1.2h1.1c.7 0 1.2.5 1.2 1.2v1.1c0 .7-.6 1.2-1.2 1.2z" class="provisioning0"/><path d="M536.8 239.9h-1.1c-.7 0-1.2-.5-1.2-1.2v-1.1c0-.7.5-1.2 1.2-1.2h1.1c.7 0 1.2.5 1.2 1.2v1.1c0 .7-.5 1.2-1.2 1.2zm0-7.7h-14.6c-.7 0-1.2-.5-1.2-1.2v-1.1c0-.7.5-1.2 1.2-1.2h14.6c.7 0 1.2.5 1.2 1.2v1.1c0 .7-.5 1.2-1.2 1.2zM517.3 245v11.6m18.7-3.4h-1.5c-.9 0-1.7-.8-1.7-1.7V250c0-.9.8-1.7 1.7-1.7h1.5c.9 0 1.7.8 1.7 1.7v1.5c0 .9-.8 1.7-1.7 1.7zm71.3 3.4h-43.7c-2.2 0-4-1.8-4-4V249c0-2.2 1.8-4 4-4h43.7c2.2 0 4 1.8 4 4v3.6c0 2.2-1.8 4-4 4zm-41.2-16.7H565c-.7 0-1.2-.5-1.2-1.2v-1.1c0-.7.5-1.2 1.2-1.2h1.1c.7 0 1.2.5 1.2 1.2v1.1c0 .7-.6 1.2-1.2 1.2zm7 0H572c-.7 0-1.2-.5-1.2-1.2v-1.1c0-.7.5-1.2 1.2-1.2h1.1c.7 0 1.2.5 1.2 1.2v1.1c.1.7-.5 1.2-1.2 1.2zm10 0H582c-.7 0-1.2-.5-1.2-1.2v-1.1c0-.7.5-1.2 1.2-1.2h1.1c.7 0 1.2.5 1.2 1.2v1.1c0 .7-.5 1.2-1.2 1.2zm-17-7.7H565c-.7 0-1.2-.5-1.2-1.2v-1.1c0-.7.5-1.2 1.2-1.2h1.1c.7 0 1.2.5 1.2 1.2v1.1c0 .7-.6 1.2-1.2 1.2zm7 0H572c-.7 0-1.2-.5-1.2-1.2v-1.1c0-.7.5-1.2 1.2-1.2h1.1c.7 0 1.2.5 1.2 1.2v1.1c.1.7-.5 1.2-1.2 1.2zm36.8 0h-1.1c-.7 0-1.2-.5-1.2-1.2v-1.1c0-.7.5-1.2 1.2-1.2h1.1c.7 0 1.2.5 1.2 1.2v1.1c.1.7-.5 1.2-1.2 1.2zm-19.7 7.7h-1.1c-.7 0-1.2-.5-1.2-1.2v-1.1c0-.7.5-1.2 1.2-1.2h1.1c.7 0 1.2.5 1.2 1.2v1.1c0 .7-.5 1.2-1.2 1.2zm7 0h-1.1c-.7 0-1.2-.5-1.2-1.2v-1.1c0-.7.5-1.2 1.2-1.2h1.1c.7 0 1.2.5 1.2 1.2v1.1c0 .7-.6 1.2-1.2 1.2z" class="provisioning0"/><path d="M597.3 239.9h-1.1c-.7 0-1.2-.5-1.2-1.2v-1.1c0-.7.5-1.2 1.2-1.2h1.1c.7 0 1.2.5 1.2 1.2v1.1c0 .7-.5 1.2-1.2 1.2z" class="provisioning0"/><path id="svg-concept" d="M666 251.3c0 1.5-1.2 2.7-2.7 2.7s-2.7-1.2-2.7-2.7 1.2-2.7 2.7-2.7c1.4 0 2.7 1.2 2.7 2.7z" class="provisioning1"/><path d="M663.8 243.6h-1.1c-.7 0-1.2-.5-1.2-1.2v-1.1c0-.7.5-1.2 1.2-1.2h1.1c.7 0 1.2.5 1.2 1.2v1.1c0 .6-.6 1.2-1.2 1.2zm0-7.9h-1.1c-.7 0-1.2-.5-1.2-1.2v-1.1c0-.7.5-1.2 1.2-1.2h1.1c.7 0 1.2.5 1.2 1.2v1.1c0 .7-.6 1.2-1.2 1.2zm-66.5-3.5h-14.6c-.7 0-1.2-.5-1.2-1.2v-1.1c0-.7.5-1.2 1.2-1.2h14.6c.7 0 1.2.5 1.2 1.2v1.1c0 .7-.5 1.2-1.2 1.2zM577.8 245v11.6m18.7-3.4H595c-.9 0-1.7-.8-1.7-1.7V250c0-.9.8-1.7 1.7-1.7h1.5c.9 0 1.7.8 1.7 1.7v1.5c0 .9-.8 1.7-1.7 1.7zm-101.3-31.8v43.4m-68.1-28.9v12.9m251.4-12.9v12.9m-123.2-27.4v43.4m60.1-43.4v43.4" class="provisioning0"/><path d="M1096.6 257c0 4.3-3.2 7.8-7.2 7.8H835.9c-4 0-7.2-3.5-7.2-7.8v-27.8c0-4.3 3.2-7.8 7.2-7.8h253.6c3.9 0 7.2 3.5 7.2 7.8l-.1 27.8h0z" class="provisioning2"/><path id="svg-concept" d="M899 239.9h-1.1c-.7 0-1.2-.5-1.2-1.2v-1.1c0-.7.5-1.2 1.2-1.2h1.1c.7 0 1.2.5 1.2 1.2v1.1c0 .7-.6 1.2-1.2 1.2zm-4.6 13.3h-1.5c-.9 0-1.7-.8-1.7-1.7V250c0-.9.8-1.7 1.7-1.7h1.5c.9 0 1.7.8 1.7 1.7v1.5c0 .9-.7 1.7-1.7 1.7zm65.1-13.3h-1.1c-.7 0-1.2-.5-1.2-1.2v-1.1c0-.7.5-1.2 1.2-1.2h1.1c.7 0 1.2.5 1.2 1.2v1.1c0 .7-.6 1.2-1.2 1.2zm-4.6 13.3h-1.5c-.9 0-1.7-.8-1.7-1.7V250c0-.9.8-1.7 1.7-1.7h1.5c.9 0 1.7.8 1.7 1.7v1.5c0 .9-.7 1.7-1.7 1.7zm65.1-13.3h-1.1c-.7 0-1.2-.5-1.2-1.2v-1.1c0-.7.5-1.2 1.2-1.2h1.1c.7 0 1.2.5 1.2 1.2v1.1c0 .7-.5 1.2-1.2 1.2zm-4.6 13.3h-1.5c-.9 0-1.7-.8-1.7-1.7V250c0-.9.8-1.7 1.7-1.7h1.5c.9 0 1.7.8 1.7 1.7v1.5c0 .9-.7 1.7-1.7 1.7zm47.5-10.1c0 5.1-4.2 9.3-9.3 9.3-5.1 0-9.3-4.2-9.3-9.3s4.2-9.3 9.3-9.3c5.1 0 9.3 4.2 9.3 9.3z" class="provisioning1"/><path id="svg-concept" d="M1057.1 243.1c0 1.9-1.5 3.4-3.4 3.4s-3.4-1.5-3.4-3.4 1.5-3.4 3.4-3.4c1.8 0 3.4 1.5 3.4 3.4zm5.8 0h-5.8m-6.9 0h-5.9" class="provisioning1"/><path d="M843.5 221.4v43.3m238.4-43.3v43.4m-185.7-8.2h-43.7c-2.2 0-4-1.8-4-4V249c0-2.2 1.8-4 4-4h43.7c2.2 0 4 1.8 4 4v3.6c0 2.2-1.8 4-4 4zM855 239.9h-1.1c-.7 0-1.2-.5-1.2-1.2v-1.1c0-.7.5-1.2 1.2-1.2h1.1c.7 0 1.2.5 1.2 1.2v1.1c0 .7-.5 1.2-1.2 1.2zm7.1 0H861c-.7 0-1.2-.5-1.2-1.2v-1.1c0-.7.5-1.2 1.2-1.2h1.1c.7 0 1.2.5 1.2 1.2v1.1c0 .7-.6 1.2-1.2 1.2zm9.9 0h-1c-.7 0-1.2-.5-1.2-1.2v-1.1c0-.7.5-1.2 1.2-1.2h1.1c.7 0 1.2.5 1.2 1.2v1.1c0 .7-.6 1.2-1.3 1.2zm-17-7.7h-1.1c-.7 0-1.2-.5-1.2-1.2v-1.1c0-.7.5-1.2 1.2-1.2h1.1c.7 0 1.2.5 1.2 1.2v1.1c0 .7-.5 1.2-1.2 1.2zm7.1 0H861c-.7 0-1.2-.5-1.2-1.2v-1.1c0-.7.5-1.2 1.2-1.2h1.1c.7 0 1.2.5 1.2 1.2v1.1c0 .7-.6 1.2-1.2 1.2zm36.8 0h-1.1c-.7 0-1.2-.5-1.2-1.2v-1.1c0-.7.5-1.2 1.2-1.2h1.1c.7 0 1.2.5 1.2 1.2v1.1c0 .7-.6 1.2-1.2 1.2zm-19.8 7.7H878c-.7 0-1.2-.5-1.2-1.2v-1.1c0-.7.5-1.2 1.2-1.2h1.1c.7 0 1.2.5 1.2 1.2v1.1c0 .7-.5 1.2-1.2 1.2zm7 0H885c-.7 0-1.2-.5-1.2-1.2v-1.1c0-.7.5-1.2 1.2-1.2h1.1c.7 0 1.2.5 1.2 1.2v1.1c0 .7-.5 1.2-1.2 1.2z" class="provisioning0"/><path d="M886.2 239.9h-1.1c-.7 0-1.2-.5-1.2-1.2v-1.1c0-.7.5-1.2 1.2-1.2h1.1c.7 0 1.2.5 1.2 1.2v1.1c0 .7-.5 1.2-1.2 1.2zm0-7.7h-14.6c-.7 0-1.2-.5-1.2-1.2v-1.1c0-.7.5-1.2 1.2-1.2h14.6c.7 0 1.2.5 1.2 1.2v1.1c0 .7-.5 1.2-1.2 1.2zM866.7 245v11.6m18.7-3.4h-1.5c-.9 0-1.7-.8-1.7-1.7V250c0-.9.8-1.7 1.7-1.7h1.5c.9 0 1.7.8 1.7 1.7v1.5c0 .9-.7 1.7-1.7 1.7zm71.3 3.4H913c-2.2 0-4-1.8-4-4V249c0-2.2 1.8-4 4-4h43.7c2.2 0 4 1.8 4 4v3.6c0 2.2-1.8 4-4 4zm-41.2-16.7h-1.1c-.7 0-1.2-.5-1.2-1.2v-1.1c0-.7.5-1.2 1.2-1.2h1.1c.7 0 1.2.5 1.2 1.2v1.1c0 .7-.5 1.2-1.2 1.2zm7.1 0h-1.1c-.7 0-1.2-.5-1.2-1.2v-1.1c0-.7.5-1.2 1.2-1.2h1.1c.7 0 1.2.5 1.2 1.2v1.1c0 .7-.6 1.2-1.2 1.2zm10 0h-1.1c-.7 0-1.2-.5-1.2-1.2v-1.1c0-.7.5-1.2 1.2-1.2h1.1c.7 0 1.2.5 1.2 1.2v1.1c0 .7-.6 1.2-1.2 1.2zm-17.1-7.7h-1.1c-.7 0-1.2-.5-1.2-1.2v-1.1c0-.7.5-1.2 1.2-1.2h1.1c.7 0 1.2.5 1.2 1.2v1.1c0 .7-.5 1.2-1.2 1.2zm7.1 0h-1.1c-.7 0-1.2-.5-1.2-1.2v-1.1c0-.7.5-1.2 1.2-1.2h1.1c.7 0 1.2.5 1.2 1.2v1.1c0 .7-.6 1.2-1.2 1.2zm36.8 0h-1.1c-.7 0-1.2-.5-1.2-1.2v-1.1c0-.7.5-1.2 1.2-1.2h1.1c.7 0 1.2.5 1.2 1.2v1.1c0 .7-.6 1.2-1.2 1.2zm-19.8 7.7h-1.1c-.7 0-1.2-.5-1.2-1.2v-1.1c0-.7.5-1.2 1.2-1.2h1.1c.7 0 1.2.5 1.2 1.2v1.1c.1.7-.5 1.2-1.2 1.2zm7 0h-1.1c-.7 0-1.2-.5-1.2-1.2v-1.1c0-.7.5-1.2 1.2-1.2h1.1c.7 0 1.2.5 1.2 1.2v1.1c0 .7-.5 1.2-1.2 1.2z" class="provisioning0"/><path d="M946.7 239.9h-1.1c-.7 0-1.2-.5-1.2-1.2v-1.1c0-.7.5-1.2 1.2-1.2h1.1c.7 0 1.2.5 1.2 1.2v1.1c0 .7-.5 1.2-1.2 1.2zm0-7.7h-14.6c-.7 0-1.2-.5-1.2-1.2v-1.1c0-.7.5-1.2 1.2-1.2h14.6c.7 0 1.2.5 1.2 1.2v1.1c0 .7-.5 1.2-1.2 1.2zM927.2 245v11.6m18.8-3.4h-1.5c-.9 0-1.7-.8-1.7-1.7V250c0-.9.8-1.7 1.7-1.7h1.5c.9 0 1.7.8 1.7 1.7v1.5c-.1.9-.8 1.7-1.7 1.7zm71.2 3.4h-43.7c-2.2 0-4-1.8-4-4V249c0-2.2 1.8-4 4-4h43.7c2.2 0 4 1.8 4 4v3.6c0 2.2-1.8 4-4 4zM976 239.9h-1.1c-.7 0-1.2-.5-1.2-1.2v-1.1c0-.7.5-1.2 1.2-1.2h1.1c.7 0 1.2.5 1.2 1.2v1.1c0 .7-.5 1.2-1.2 1.2zm7.1 0H982c-.7 0-1.2-.5-1.2-1.2v-1.1c0-.7.5-1.2 1.2-1.2h1.1c.7 0 1.2.5 1.2 1.2v1.1c0 .7-.5 1.2-1.2 1.2zm10 0H992c-.7 0-1.2-.5-1.2-1.2v-1.1c0-.7.5-1.2 1.2-1.2h1.1c.7 0 1.2.5 1.2 1.2v1.1c0 .7-.6 1.2-1.2 1.2zm-17.1-7.7h-1.1c-.7 0-1.2-.5-1.2-1.2v-1.1c0-.7.5-1.2 1.2-1.2h1.1c.7 0 1.2.5 1.2 1.2v1.1c0 .7-.5 1.2-1.2 1.2zm7.1 0H982c-.7 0-1.2-.5-1.2-1.2v-1.1c0-.7.5-1.2 1.2-1.2h1.1c.7 0 1.2.5 1.2 1.2v1.1c0 .7-.5 1.2-1.2 1.2zm36.8 0h-1.1c-.7 0-1.2-.5-1.2-1.2v-1.1c0-.7.5-1.2 1.2-1.2h1.1c.7 0 1.2.5 1.2 1.2v1.1c0 .7-.5 1.2-1.2 1.2zm-19.8 7.7H999c-.7 0-1.2-.5-1.2-1.2v-1.1c0-.7.5-1.2 1.2-1.2h1.1c.7 0 1.2.5 1.2 1.2v1.1c.1.7-.5 1.2-1.2 1.2zm7 0h-1.1c-.7 0-1.2-.5-1.2-1.2v-1.1c0-.7.5-1.2 1.2-1.2h1.1c.7 0 1.2.5 1.2 1.2v1.1c0 .7-.5 1.2-1.2 1.2z" class="provisioning0"/><path d="M1007.2 239.9h-1.1c-.7 0-1.2-.5-1.2-1.2v-1.1c0-.7.5-1.2 1.2-1.2h1.1c.7 0 1.2.5 1.2 1.2v1.1c0 .7-.5 1.2-1.2 1.2z" class="provisioning0"/><path id="svg-concept" d="M1075.9 251.3c0 1.5-1.2 2.7-2.7 2.7s-2.7-1.2-2.7-2.7 1.2-2.7 2.7-2.7 2.7 1.2 2.7 2.7z" class="provisioning1"/><path d="M1073.7 243.6h-1.1c-.7 0-1.2-.5-1.2-1.2v-1.1c0-.7.5-1.2 1.2-1.2h1.1c.7 0 1.2.5 1.2 1.2v1.1c0 .6-.5 1.2-1.2 1.2zm0-7.9h-1.1c-.7 0-1.2-.5-1.2-1.2v-1.1c0-.7.5-1.2 1.2-1.2h1.1c.7 0 1.2.5 1.2 1.2v1.1c0 .7-.5 1.2-1.2 1.2zm-66.5-3.5h-14.6c-.7 0-1.2-.5-1.2-1.2v-1.1c0-.7.5-1.2 1.2-1.2h14.6c.7 0 1.2.5 1.2 1.2v1.1c0 .7-.5 1.2-1.2 1.2zM987.7 245v11.6m18.8-3.4h-1.5c-.9 0-1.7-.8-1.7-1.7V250c0-.9.8-1.7 1.7-1.7h1.5c.9 0 1.7.8 1.7 1.7v1.5c-.1.9-.8 1.7-1.7 1.7zm-101.4-31.8v43.4m-68-28.9v12.9m251.3-12.9v12.9m-123.2-27.4v43.4m60.1-43.4v43.4" class="provisioning0"/><path d="M276.8 257c0 4.3-3.2 7.8-7.2 7.8H16c-4 0-7.2-3.5-7.2-7.8v-27.8c0-4.3 3.2-7.8 7.2-7.8h253.6c3.9 0 7.2 3.5 7.2 7.8V257h0z" class="provisioning2"/><path id="svg-concept" d="M79.1 239.9H78c-.7 0-1.2-.5-1.2-1.2v-1.1c0-.7.5-1.2 1.2-1.2h1.1c.7 0 1.2.5 1.2 1.2v1.1c0 .7-.5 1.2-1.2 1.2zm-4.5 13.3H73c-.9 0-1.7-.8-1.7-1.7V250c0-.9.8-1.7 1.7-1.7h1.5c.9 0 1.7.8 1.7 1.7v1.5c0 .9-.7 1.7-1.6 1.7zm65-13.3h-1.1c-.7 0-1.2-.5-1.2-1.2v-1.1c0-.7.5-1.2 1.2-1.2h1.1c.7 0 1.2.5 1.2 1.2v1.1c0 .7-.5 1.2-1.2 1.2zm-4.5 13.3h-1.5c-.9 0-1.7-.8-1.7-1.7V250c0-.9.8-1.7 1.7-1.7h1.5c.9 0 1.7.8 1.7 1.7v1.5c-.1.9-.8 1.7-1.7 1.7zm65-13.3H199c-.7 0-1.2-.5-1.2-1.2v-1.1c0-.7.5-1.2 1.2-1.2h1.1c.7 0 1.2.5 1.2 1.2v1.1c0 .7-.5 1.2-1.2 1.2zm-4.5 13.3h-1.5c-.9 0-1.7-.8-1.7-1.7V250c0-.9.8-1.7 1.7-1.7h1.5c.9 0 1.7.8 1.7 1.7v1.5c0 .9-.8 1.7-1.7 1.7zm47.4-10.1c0 5.1-4.2 9.3-9.3 9.3s-9.3-4.2-9.3-9.3 4.2-9.3 9.3-9.3c5.2 0 9.3 4.2 9.3 9.3z" class="provisioning1"/><path id="svg-concept" d="M237.2 243.1c0 1.9-1.5 3.4-3.4 3.4s-3.4-1.5-3.4-3.4 1.5-3.4 3.4-3.4c1.8 0 3.4 1.5 3.4 3.4zm5.8 0h-5.8m-6.9 0h-5.9" class="provisioning1"/><path d="M23.6 221.4v43.3M262 221.4v43.4m-185.7-8.2H32.6c-2.2 0-4-1.8-4-4V249c0-2.2 1.8-4 4-4h43.7c2.2 0 4 1.8 4 4v3.6c0 2.2-1.8 4-4 4zm-41.2-16.7H34c-.7 0-1.2-.5-1.2-1.2v-1.1c0-.7.5-1.2 1.2-1.2h1.1c.7 0 1.2.5 1.2 1.2v1.1c0 .7-.5 1.2-1.2 1.2zm7.1 0h-1.1c-.7 0-1.2-.5-1.2-1.2v-1.1c0-.7.5-1.2 1.2-1.2h1.1c.7 0 1.2.5 1.2 1.2v1.1c0 .7-.5 1.2-1.2 1.2zm10 0h-1.1c-.7 0-1.2-.5-1.2-1.2v-1.1c0-.7.5-1.2 1.2-1.2h1.1c.7 0 1.2.5 1.2 1.2v1.1c0 .7-.6 1.2-1.2 1.2zm-17.1-7.7H34c-.7 0-1.2-.5-1.2-1.2v-1.1c0-.7.5-1.2 1.2-1.2h1.1c.7 0 1.2.5 1.2 1.2v1.1c0 .7-.5 1.2-1.2 1.2zm7.1 0h-1.1c-.7 0-1.2-.5-1.2-1.2v-1.1c0-.7.5-1.2 1.2-1.2h1.1c.7 0 1.2.5 1.2 1.2v1.1c0 .7-.5 1.2-1.2 1.2zm36.8 0h-1.1c-.7 0-1.2-.5-1.2-1.2v-1.1c0-.7.5-1.2 1.2-1.2H79c.7 0 1.2.5 1.2 1.2v1.1c0 .7-.5 1.2-1.2 1.2zm-19.7 7.7h-1.1c-.7 0-1.2-.5-1.2-1.2v-1.1c0-.7.5-1.2 1.2-1.2h1.1c.7 0 1.2.5 1.2 1.2v1.1c0 .7-.6 1.2-1.2 1.2zm6.9 0h-1.1c-.7 0-1.2-.5-1.2-1.2v-1.1c0-.7.5-1.2 1.2-1.2h1.1c.7 0 1.2.5 1.2 1.2v1.1c0 .7-.5 1.2-1.2 1.2z" class="provisioning0"/><path d="M66.3 239.9h-1.1c-.7 0-1.2-.5-1.2-1.2v-1.1c0-.7.5-1.2 1.2-1.2h1.1c.7 0 1.2.5 1.2 1.2v1.1c.1.7-.5 1.2-1.2 1.2zm0-7.7H51.7c-.7 0-1.2-.5-1.2-1.2v-1.1c0-.7.5-1.2 1.2-1.2h14.6c.7 0 1.2.5 1.2 1.2v1.1c.1.7-.5 1.2-1.2 1.2zM46.8 245v11.6m18.8-3.4h-1.5c-.9 0-1.7-.8-1.7-1.7V250c0-.9.8-1.7 1.7-1.7h1.5c.9 0 1.7.8 1.7 1.7v1.5c0 .9-.8 1.7-1.7 1.7zm71.2 3.4H93.1c-2.2 0-4-1.8-4-4V249c0-2.2 1.8-4 4-4h43.7c2.2 0 4 1.8 4 4v3.6c0 2.2-1.8 4-4 4zm-41.2-16.7h-1.1c-.7 0-1.2-.5-1.2-1.2v-1.1c0-.7.5-1.2 1.2-1.2h1.1c.7 0 1.2.5 1.2 1.2v1.1c0 .7-.5 1.2-1.2 1.2zm7.1 0h-1.1c-.7 0-1.2-.5-1.2-1.2v-1.1c0-.7.5-1.2 1.2-1.2h1.1c.7 0 1.2.5 1.2 1.2v1.1c0 .7-.5 1.2-1.2 1.2zm10 0h-1.1c-.7 0-1.2-.5-1.2-1.2v-1.1c0-.7.5-1.2 1.2-1.2h1.1c.7 0 1.2.5 1.2 1.2v1.1c0 .7-.6 1.2-1.2 1.2zm-17.1-7.7h-1.1c-.7 0-1.2-.5-1.2-1.2v-1.1c0-.7.5-1.2 1.2-1.2h1.1c.7 0 1.2.5 1.2 1.2v1.1c0 .7-.5 1.2-1.2 1.2zm7.1 0h-1.1c-.7 0-1.2-.5-1.2-1.2v-1.1c0-.7.5-1.2 1.2-1.2h1.1c.7 0 1.2.5 1.2 1.2v1.1c0 .7-.5 1.2-1.2 1.2zm36.8 0h-1.1c-.7 0-1.2-.5-1.2-1.2v-1.1c0-.7.5-1.2 1.2-1.2h1.1c.7 0 1.2.5 1.2 1.2v1.1c0 .7-.5 1.2-1.2 1.2zm-19.7 7.7h-1.1c-.7 0-1.2-.5-1.2-1.2v-1.1c0-.7.5-1.2 1.2-1.2h1.1c.7 0 1.2.5 1.2 1.2v1.1c0 .7-.6 1.2-1.2 1.2zm6.9 0h-1.1c-.7 0-1.2-.5-1.2-1.2v-1.1c0-.7.5-1.2 1.2-1.2h1.1c.7 0 1.2.5 1.2 1.2v1.1c0 .7-.5 1.2-1.2 1.2z" class="provisioning0"/><path d="M126.8 239.9h-1.1c-.7 0-1.2-.5-1.2-1.2v-1.1c0-.7.5-1.2 1.2-1.2h1.1c.7 0 1.2.5 1.2 1.2v1.1c.1.7-.5 1.2-1.2 1.2zm0-7.7h-14.6c-.7 0-1.2-.5-1.2-1.2v-1.1c0-.7.5-1.2 1.2-1.2h14.6c.7 0 1.2.5 1.2 1.2v1.1c.1.7-.5 1.2-1.2 1.2zM107.3 245v11.6m18.8-3.4h-1.5c-.9 0-1.7-.8-1.7-1.7V250c0-.9.8-1.7 1.7-1.7h1.5c.9 0 1.7.8 1.7 1.7v1.5c0 .9-.8 1.7-1.7 1.7zm71.2 3.4h-43.7c-2.2 0-4-1.8-4-4V249c0-2.2 1.8-4 4-4h43.7c2.2 0 4 1.8 4 4v3.6c0 2.2-1.8 4-4 4zm-41.2-16.7H155c-.7 0-1.2-.5-1.2-1.2v-1.1c0-.7.5-1.2 1.2-1.2h1.1c.7 0 1.2.5 1.2 1.2v1.1c0 .7-.5 1.2-1.2 1.2zm7.1 0h-1.1c-.7 0-1.2-.5-1.2-1.2v-1.1c0-.7.5-1.2 1.2-1.2h1.1c.7 0 1.2.5 1.2 1.2v1.1c0 .7-.5 1.2-1.2 1.2zm10 0h-1.1c-.7 0-1.2-.5-1.2-1.2v-1.1c0-.7.5-1.2 1.2-1.2h1.1c.7 0 1.2.5 1.2 1.2v1.1c0 .7-.5 1.2-1.2 1.2zm-17.1-7.7H155c-.7 0-1.2-.5-1.2-1.2v-1.1c0-.7.5-1.2 1.2-1.2h1.1c.7 0 1.2.5 1.2 1.2v1.1c0 .7-.5 1.2-1.2 1.2zm7.1 0h-1.1c-.7 0-1.2-.5-1.2-1.2v-1.1c0-.7.5-1.2 1.2-1.2h1.1c.7 0 1.2.5 1.2 1.2v1.1c0 .7-.5 1.2-1.2 1.2zm36.8 0h-1.1c-.7 0-1.2-.5-1.2-1.2v-1.1c0-.7.5-1.2 1.2-1.2h1.1c.7 0 1.2.5 1.2 1.2v1.1c0 .7-.5 1.2-1.2 1.2zm-19.7 7.7h-1.1c-.7 0-1.2-.5-1.2-1.2v-1.1c0-.7.5-1.2 1.2-1.2h1.1c.7 0 1.2.5 1.2 1.2v1.1c0 .7-.6 1.2-1.2 1.2zm6.9 0h-1.1c-.7 0-1.2-.5-1.2-1.2v-1.1c0-.7.5-1.2 1.2-1.2h1.1c.7 0 1.2.5 1.2 1.2v1.1c.1.7-.5 1.2-1.2 1.2z" class="provisioning0"/><path d="M187.4 239.9h-1.1c-.7 0-1.2-.5-1.2-1.2v-1.1c0-.7.5-1.2 1.2-1.2h1.1c.7 0 1.2.5 1.2 1.2v1.1c0 .7-.6 1.2-1.2 1.2z" class="provisioning0"/><path id="svg-concept" d="M256 251.3c0 1.5-1.2 2.7-2.7 2.7s-2.7-1.2-2.7-2.7 1.2-2.7 2.7-2.7 2.7 1.2 2.7 2.7z" class="provisioning1"/><path d="M253.8 243.6h-1.1c-.7 0-1.2-.5-1.2-1.2v-1.1c0-.7.5-1.2 1.2-1.2h1.1c.7 0 1.2.5 1.2 1.2v1.1c0 .6-.5 1.2-1.2 1.2zm0-7.9h-1.1c-.7 0-1.2-.5-1.2-1.2v-1.1c0-.7.5-1.2 1.2-1.2h1.1c.7 0 1.2.5 1.2 1.2v1.1c0 .7-.5 1.2-1.2 1.2zm-66.5-3.5h-14.6c-.7 0-1.2-.5-1.2-1.2v-1.1c0-.7.5-1.2 1.2-1.2h14.6c.7 0 1.2.5 1.2 1.2v1.1c.1.7-.5 1.2-1.2 1.2zM167.8 245v11.6m18.8-3.4h-1.5c-.9 0-1.7-.8-1.7-1.7V250c0-.9.8-1.7 1.7-1.7h1.5c.9 0 1.7.8 1.7 1.7v1.5c0 .9-.8 1.7-1.7 1.7zM85.3 221.4v43.4m-68.1-28.9v12.9m251.3-12.9v12.9m-123.1-27.4v43.4m60-43.4v43.4" class="provisioning0"/><animateMotion fill="freeze" accumulate="none" additive="replace" begin="0s" calcMode="paced" dur="5s" path="M0, 0 1440 0" restart="always"/><animateMotion fill="remove" accumulate="none" additive="replace" begin="6s" calcMode="paced" dur="6s" path="M-1000, 0 1440 0" repeatCount="indefinite" restart="always"/></g><path d="M453.3 49.5c-4.1 2.1-8.2 4.3-12.3 6.6-106.9 61.8-143.4 198.4-81.7 305.3C421 468.2 557.7 504.8 664.5 443c106.8-61.7 143.4-198.4 81.6-305.2a222.41 222.41 0 0 0-96.9-89.7m-.1 24c31.6 17.3 59.1 43.1 78.4 76.6 24 41.5 31.6 88 25 131.9-20-7-42.8-5.6-62.6 5.9-36.1 20.8-48.4 67-27.6 103.1 4.4 7.6 9.9 14.1 16.1 19.5-7.8 6.2-16.2 12-25.1 17.1-74.5 43-164.9 33.5-228.3-17 27-23.2 34.6-63 16.1-94.9s-56.8-45.3-90.3-33.4c-12.1-80.2 24.8-163.3 99.2-206.3 1.1-.6 2.2-1.3 3.3-1.9" class="provisioning0"/><path d="M403.4 345.8c-4-1.1-6.3-5.1-5.3-9.1 1.1-4 5.1-6.3 9.1-5.3 4 1.1 6.3 5.1 5.3 9.1-1.1 4-5.1 6.3-9.1 5.3z" class="provisioning0"/><path d="M404.6 341.2c-1.5-.4-2.4-1.9-2-3.4s1.9-2.3 3.4-2c1.5.4 2.3 1.9 2 3.4-.4 1.5-1.9 2.4-3.4 2zm-1.2 4.6 1.2-4.6m1.4-5.3 1.2-4.5m290.5 8.6c-4-1.1-6.3-5.1-5.3-9.1 1.1-4 5.1-6.3 9.1-5.3 4 1.1 6.3 5.1 5.3 9.1-1.1 4-5.1 6.3-9.1 5.3z" class="provisioning0"/><path d="M698.9 335.5c-1.5-.4-2.4-1.9-2-3.4s1.9-2.3 3.4-2c1.5.4 2.3 1.9 2 3.4-.4 1.5-1.9 2.4-3.4 2zm-1.2 4.5 1.2-4.5m1.4-5.4 1.2-4.5M636.2.9c6.5 0 11.8 5.3 11.8 11.8v124.4c0 6.5-5.3 11.8-11.8 11.8H467.4c-6.5 0-11.8-5.3-11.8-11.8V12.7c0-6.5 5.3-11.8 11.8-11.8h168.8z" class="provisioning0"/><path id="svg-concept" d="M630.4 24.7c0 .3-.2.5-.5.5h-16.7c-.3 0-.5-.2-.5-.5v-1.8c0-.3.2-.5.5-.5H630c.3 0 .5.2.5.5l-.1 1.8h0zm0 15.2c0 .3-.2.5-.5.5h-16.7c-.3 0-.5-.2-.5-.5v-1.8c0-.3.2-.5.5-.5H630c.3 0 .5.2.5.5l-.1 1.8h0zm-30.1-15.2c0 .3-.2.5-.5.5h-16.7c-.3 0-.5-.2-.5-.5v-1.8c0-.3.2-.5.5-.5h16.7c.3 0 .5.2.5.5v1.8z" class="provisioning3"/><path d="M475.3 31.4c-1.4-1.8-2.3-4-2.5-6.5a13.39 13.39 0 0 1 24.1-9.4" class="provisioning0"/><path id="svg-concept" d="m493.4 23.3-7.2.1" class="provisioning1"/><path d="m490.2 10.7-.4 1.3" class="provisioning0"/><path id="svg-concept" d="m496.9 15.5-1.2.8m3.8 6.9-1.4.1m-1.1 7.8-1.1-.8" class="provisioning1"/><path d="M472.7 23.5h1.4m1.1-8 1.2.9m5.5-5.7.5 1.3m-7.1 19.4 1.1-.8" class="provisioning0"/><path id="svg-concept" d="M486.5 23.4c0 .2-.2.4-.4.4s-.4-.2-.4-.4.2-.4.4-.4c.3 0 .4.2.4.4z" class="provisioning3"/><path d="M473.4 130.7h157.2" class="provisioning0"/><path d="M473.4 76.4h1.5" class="provisioning4"/><path d="M477.9 76.4h149.7" class="provisioning5"/><path d="M629.1 76.4h1.5m-157.2 34h1.5" class="provisioning4"/><path d="M477.9 110.4h149.7" class="provisioning5"/><path d="M629.1 110.4h1.5M475 93.5h1.5" class="provisioning4"/><path d="M479.6 93.5h149.7" class="provisioning5"/><path d="M630.8 93.5h1.5" class="provisioning4"/><path d="M473.4 130.7V59.5M634 53.4h-24.8V9.7H634v43.7z" class="provisioning0"/><path d="M630.4 17.1c0 .3-.2.5-.5.5h-16.7c-.3 0-.5-.2-.5-.5v-1.8c0-.3.2-.5.5-.5H630c.3 0 .5.2.5.5l-.1 1.8h0zm0 15.2c0 .3-.2.5-.5.5h-16.7c-.3 0-.5-.2-.5-.5v-1.8c0-.3.2-.5.5-.5H630c.3 0 .5.2.5.5l-.1 1.8h0zm0 15.3c0 .3-.2.5-.5.5h-16.7c-.3 0-.5-.2-.5-.5v-1.8c0-.3.2-.5.5-.5H630c.3 0 .5.2.5.5l-.1 1.8h0zm-26.5 5.8h-24.8V9.7h24.8v43.7z" class="provisioning0"/><path d="M600.3 17.1c0 .3-.2.5-.5.5h-16.7c-.3 0-.5-.2-.5-.5v-1.8c0-.3.2-.5.5-.5h16.7c.3 0 .5.2.5.5v1.8zm0 15.2c0 .3-.2.5-.5.5h-16.7c-.3 0-.5-.2-.5-.5v-1.8c0-.3.2-.5.5-.5h16.7c.3 0 .5.2.5.5v1.8zm0 7.6c0 .3-.2.5-.5.5h-16.7c-.3 0-.5-.2-.5-.5v-1.8c0-.3.2-.5.5-.5h16.7c.3 0 .5.2.5.5v1.8zm0 7.7c0 .3-.2.5-.5.5h-16.7c-.3 0-.5-.2-.5-.5v-1.8c0-.3.2-.5.5-.5h16.7c.3 0 .5.2.5.5v1.8z" class="provisioning0"/><path id="svg-concept" d="M496.9 15.5c1.3 1.8 2.2 4 2.5 6.4.4 3.4-.5 6.6-2.4 9.2" class="provisioning1"/><path d="M517.1 31.4c-1.4-1.8-2.3-4-2.5-6.5a13.39 13.39 0 0 1 24.1-9.4" class="provisioning0"/><path id="svg-concept" d="m535.3 23.3-7.4.1" class="provisioning1"/><path d="m532 10.7-.5 1.3" class="provisioning0"/><path id="svg-concept" d="m538.6 15.5-1.1.8m3.7 6.9-1.3.1m-1.1 7.8-1.2-.8" class="provisioning1"/><path d="M514.4 23.5h1.4m1.2-8 1.2.9m5.5-5.7.4 1.3M517 31.4l1.1-.8" class="provisioning0"/><path id="svg-concept" d="M528.3 23.4c0 .2-.2.4-.4.4s-.4-.2-.4-.4.2-.4.4-.4.4.2.4.4z" class="provisioning3"/><path id="svg-concept" d="M538.6 15.5c1.3 1.8 2.2 4 2.5 6.4.4 3.4-.5 6.6-2.4 9.2" class="provisioning1"/><path d="m473.4 92.5 5.7-1.7 6.9 3.1 6.8-4.3 6.4 4.4 6-6.5 7.9 14.4 8.8-20.2 7.2 10.8 6.6-33 9.5 56.8 8.4-43.9 6.5 28 9-16.7 8.2 8.8 6.6-4.8 7.3 4.8 6.9 3.6 7.8-6.9 8.4 5.1 6.7-1.8h9.6m17.5-60.1h1.3c.3 0 .6.3.6.6v4.4c0 .3-.3.6-.6.6h-1.3m0-14.2h1.3c.3 0 .6.3.6.6v4.4c0 .3-.3.6-.6.6h-1.3" class="provisioning0"/><path id="svg-ico" fill="#ee5586" d="M632.4 130.7c0 2.1-1.6 3.5-3.5 3.5-2.1 0-3.5-1.6-3.5-3.5s1.6-3.5 3.5-3.5 3.5 1.6 3.5 3.5z"/><g><path id="svg-concept" fill="none" stroke="#ee5586" stroke-linecap="round" stroke-linejoin="round" stroke-miterlimit="10" stroke-width="3" d="M485.7 60.2v63.1"/><animateMotion fill="remove" accumulate="none" additive="replace" begin="0s" calcMode="paced" dur="8s" path="M0, 0 140 0 0 0" repeatCount="indefinite" restart="always"/></g></svg>