<svg version="1.1" id="Layer_1" xmlns="http://www.w3.org/2000/svg" x="0" y="0" viewBox="0 0 1099.5 361.5" style="enable-background:new 0 0 1099.5 361.5" xml:space="preserve"><style>.redundante1,.redundante2{fill:none;stroke-miterlimit:10}.redundante1{stroke:gray;stroke-linecap:round;stroke-linejoin:round}.redundante2{stroke:#ee5586;stroke-width:2}.redundante3{fill:#ee5586}</style><path id="svg-concept" d="m879.2 132.3-67.8 67.8m.3-67.8 67.9 67.8m-296.5-67.4-67 67m-.2-67 67 67m-362.1-67 66.4 66.3m0-66.3L220.8 199" style="fill:#fff;stroke-width:2;stroke-linecap:round;stroke-linejoin:round;stroke-miterlimit:10"/><circle class="redundante1" cx="105.9" cy="353.2" r="6.5"/><path class="redundante1" d="M105.9 335.2v11.1m-51.1 6.9h44.4m13.3 0h44.4m53.7-117.9c0 3.4-2.5 6.1-5.6 6.1H6.8c-3.1 0-5.6-2.7-5.6-6.1v-21.7c0-3.4 2.5-6.1 5.6-6.1H205c3.1 0 5.6 2.7 5.6 6.1v21.7z"/><path class="redundante1" d="M184.2 224.5c0 4-3.3 7.3-7.3 7.3s-7.3-3.3-7.3-7.3 3.2-7.3 7.3-7.3c4 0 7.3 3.2 7.3 7.3zM210.6 280.4c0 3.4-2.5 6.1-5.6 6.1H6.8c-3.1 0-5.6-2.7-5.6-6.1v-21.7c0-3.4 2.5-6.1 5.6-6.1H205c3.1 0 5.6 2.7 5.6 6.1v21.7z"/><path class="redundante1" d="M184.2 269.6c0 4-3.3 7.3-7.3 7.3s-7.3-3.3-7.3-7.3 3.2-7.3 7.3-7.3c4 0 7.3 3.3 7.3 7.3zM210.6 325.5c0 3.4-2.5 6.1-5.6 6.1H6.8c-3.1 0-5.6-2.7-5.6-6.1v-21.7c0-3.4 2.5-6.1 5.6-6.1H205c3.1 0 5.6 2.7 5.6 6.1v21.7z"/><path class="redundante1" d="M184.2 314.7c0 4-3.3 7.3-7.3 7.3s-7.3-3.3-7.3-7.3 3.2-7.3 7.3-7.3c4 0 7.3 3.3 7.3 7.3z"/><circle class="redundante1" cx="105.9" cy="146.9" r="6.5"/><path class="redundante1" d="M105.9 129v11.1m-51.1 6.8h44.4m13.3 0h44.4m53.7-117.8c0 3.4-2.5 6.1-5.6 6.1H6.8c-3.1 0-5.6-2.7-5.6-6.1V7.4c0-3.4 2.5-6.1 5.6-6.1H205c3.1 0 5.6 2.7 5.6 6.1v21.7z"/><path class="redundante1" d="M184.2 18.2c0 4-3.3 7.3-7.3 7.3s-7.3-3.3-7.3-7.3 3.2-7.3 7.3-7.3c4 .1 7.3 3.3 7.3 7.3zM210.6 74.2c0 3.4-2.5 6.1-5.6 6.1H6.8c-3.1 0-5.6-2.7-5.6-6.1V52.5c0-3.4 2.5-6.1 5.6-6.1H205c3.1 0 5.6 2.7 5.6 6.1v21.7z"/><path class="redundante1" d="M184.2 63.3c0 4-3.3 7.3-7.3 7.3s-7.3-3.3-7.3-7.3 3.2-7.3 7.3-7.3c4 .1 7.3 3.3 7.3 7.3zM210.6 119.3c0 3.4-2.5 6.1-5.6 6.1H6.8c-3.1 0-5.6-2.7-5.6-6.1V97.6c0-3.4 2.5-6.1 5.6-6.1H205c3.1 0 5.6 2.7 5.6 6.1v21.7z"/><path class="redundante1" d="M184.2 108.4c0 4-3.3 7.3-7.3 7.3s-7.3-3.3-7.3-7.3 3.2-7.3 7.3-7.3c4 .1 7.3 3.3 7.3 7.3z"/><g id="svg-concept"><circle id="svg-concept" class="redundante2" cx="401.6" cy="353.2" r="6.5"/><path id="svg-concept" class="redundante2" d="M401.6 335.2v11.1m-51.1 6.9h44.4m13.3 0h44.4m53.7-117.9c0 3.4-2.5 6.1-5.6 6.1H302.5c-3.1 0-5.6-2.7-5.6-6.1v-21.7c0-3.4 2.5-6.1 5.6-6.1h198.2c3.1 0 5.6 2.7 5.6 6.1v21.7z"/><path id="svg-concept" class="redundante2" d="M479.9 224.5c0 4-3.3 7.3-7.3 7.3s-7.3-3.3-7.3-7.3 3.2-7.3 7.3-7.3c4 0 7.3 3.2 7.3 7.3zM506.3 280.4c0 3.4-2.5 6.1-5.6 6.1H302.5c-3.1 0-5.6-2.7-5.6-6.1v-21.7c0-3.4 2.5-6.1 5.6-6.1h198.2c3.1 0 5.6 2.7 5.6 6.1v21.7z"/><path id="svg-concept" class="redundante2" d="M479.9 269.6c0 4-3.3 7.3-7.3 7.3s-7.3-3.3-7.3-7.3 3.2-7.3 7.3-7.3c4 0 7.3 3.3 7.3 7.3zM506.3 325.5c0 3.4-2.5 6.1-5.6 6.1H302.5c-3.1 0-5.6-2.7-5.6-6.1v-21.7c0-3.4 2.5-6.1 5.6-6.1h198.2c3.1 0 5.6 2.7 5.6 6.1v21.7z"/><path id="svg-concept" class="redundante2" d="M479.9 314.7c0 4-3.3 7.3-7.3 7.3s-7.3-3.3-7.3-7.3 3.2-7.3 7.3-7.3c4 0 7.3 3.3 7.3 7.3z"/><animateMotion accumulate="none" additive="replace" begin="0s" calcMode="paced" dur="3s" fill="remove" path="M8, 0 8 0 -8 0 8 0" repeatCount="indefinite" restart="always"/><animateMotion accumulate="none" additive="replace" begin="6s" calcMode="paced" fill="freeze" path="M8, 0 8 0 -8 0 8 0" restart="always"/></g><g id="svg-concept"><circle id="svg-concept" class="redundante2" cx="697.3" cy="353.2" r="6.5"/><path id="svg-concept" class="redundante2" d="M697.3 335.2v11.1m-51.1 6.9h44.4m13.3 0h44.4M802 235.3c0 3.4-2.5 6.1-5.6 6.1H598.2c-3.1 0-5.6-2.7-5.6-6.1v-21.7c0-3.4 2.5-6.1 5.6-6.1h198.2c3.1 0 5.6 2.7 5.6 6.1v21.7z"/><path id="svg-concept" class="redundante2" d="M775.6 224.5c0 4-3.3 7.3-7.3 7.3s-7.3-3.3-7.3-7.3 3.2-7.3 7.3-7.3c4 0 7.3 3.2 7.3 7.3zM802 280.4c0 3.4-2.5 6.1-5.6 6.1H598.2c-3.1 0-5.6-2.7-5.6-6.1v-21.7c0-3.4 2.5-6.1 5.6-6.1h198.2c3.1 0 5.6 2.7 5.6 6.1v21.7z"/><path id="svg-concept" class="redundante2" d="M775.6 269.6c0 4-3.3 7.3-7.3 7.3s-7.3-3.3-7.3-7.3 3.2-7.3 7.3-7.3c4 0 7.3 3.3 7.3 7.3zM802 325.5c0 3.4-2.5 6.1-5.6 6.1H598.2c-3.1 0-5.6-2.7-5.6-6.1v-21.7c0-3.4 2.5-6.1 5.6-6.1h198.2c3.1 0 5.6 2.7 5.6 6.1v21.7z"/><path id="svg-concept" class="redundante2" d="M775.6 314.7c0 4-3.3 7.3-7.3 7.3s-7.3-3.3-7.3-7.3 3.2-7.3 7.3-7.3c4 0 7.3 3.3 7.3 7.3z"/><animateMotion accumulate="none" additive="replace" begin="0s" calcMode="paced" dur="3s" fill="remove" path="M8, 0 8 0 -8 0 8 0" repeatCount="indefinite" restart="always"/></g><circle class="redundante1" cx="401.6" cy="146.9" r="6.5"/><path class="redundante1" d="M401.6 129v11.1m-51.1 6.8h44.4m13.3 0h44.4m53.7-117.8c0 3.4-2.5 6.1-5.6 6.1H302.5c-3.1 0-5.6-2.7-5.6-6.1V7.4c0-3.4 2.5-6.1 5.6-6.1h198.2c3.1 0 5.6 2.7 5.6 6.1v21.7h0z"/><path class="redundante1" d="M479.9 18.2c0 4-3.3 7.3-7.3 7.3s-7.3-3.3-7.3-7.3 3.2-7.3 7.3-7.3c4 .1 7.3 3.3 7.3 7.3zM506.3 74.2c0 3.4-2.5 6.1-5.6 6.1H302.5c-3.1 0-5.6-2.7-5.6-6.1V52.5c0-3.4 2.5-6.1 5.6-6.1h198.2c3.1 0 5.6 2.7 5.6 6.1v21.7h0z"/><path class="redundante1" d="M479.9 63.3c0 4-3.3 7.3-7.3 7.3s-7.3-3.3-7.3-7.3 3.2-7.3 7.3-7.3c4 .1 7.3 3.3 7.3 7.3zM506.3 119.3c0 3.4-2.5 6.1-5.6 6.1H302.5c-3.1 0-5.6-2.7-5.6-6.1V97.6c0-3.4 2.5-6.1 5.6-6.1h198.2c3.1 0 5.6 2.7 5.6 6.1v21.7h0z"/><path class="redundante1" d="M479.9 108.4c0 4-3.3 7.3-7.3 7.3s-7.3-3.3-7.3-7.3 3.2-7.3 7.3-7.3c4 .1 7.3 3.3 7.3 7.3z"/><g id="svg-concept"><circle id="svg-concept" class="redundante2" cx="697.3" cy="146.9" r="6.5"/><path id="svg-concept" class="redundante2" d="M697.3 129v11.1m-51.1 6.8h44.4m13.3 0h44.4M802 29.1c0 3.4-2.5 6.1-5.6 6.1H598.2c-3.1 0-5.6-2.7-5.6-6.1V7.4c0-3.4 2.5-6.1 5.6-6.1h198.2c3.1 0 5.6 2.7 5.6 6.1v21.7z"/><path id="svg-concept" class="redundante2" d="M775.6 18.2c0 4-3.3 7.3-7.3 7.3s-7.3-3.3-7.3-7.3 3.2-7.3 7.3-7.3c4 .1 7.3 3.3 7.3 7.3zM802 74.2c0 3.4-2.5 6.1-5.6 6.1H598.2c-3.1 0-5.6-2.7-5.6-6.1V52.5c0-3.4 2.5-6.1 5.6-6.1h198.2c3.1 0 5.6 2.7 5.6 6.1v21.7z"/><path id="svg-concept" class="redundante2" d="M775.6 63.3c0 4-3.3 7.3-7.3 7.3s-7.3-3.3-7.3-7.3 3.2-7.3 7.3-7.3c4 .1 7.3 3.3 7.3 7.3zM802 119.3c0 3.4-2.5 6.1-5.6 6.1H598.2c-3.1 0-5.6-2.7-5.6-6.1V97.6c0-3.4 2.5-6.1 5.6-6.1h198.2c3.1 0 5.6 2.7 5.6 6.1v21.7z"/><path id="svg-concept" class="redundante2" d="M775.6 108.4c0 4-3.3 7.3-7.3 7.3s-7.3-3.3-7.3-7.3 3.2-7.3 7.3-7.3c4 .1 7.3 3.3 7.3 7.3z"/><animateMotion accumulate="none" additive="replace" begin="7s" calcMode="paced" dur="3s" fill="remove" path="M8, 0 8 0 -8 0 8 0" repeatCount="indefinite" restart="always"/><animateMotion accumulate="none" additive="replace" calcMode="paced" fill="remove" path="M8, 0 8 0 -8 0 8 0" repeatCount="indefinite" restart="always"/></g><circle class="redundante1" cx="993" cy="353.2" r="6.5"/><path class="redundante1" d="M993 335.2v11.1m-51.1 6.9h44.4m13.3 0h44.4m53.7-117.9c0 3.4-2.5 6.1-5.6 6.1H893.9c-3.1 0-5.6-2.7-5.6-6.1v-21.7c0-3.4 2.5-6.1 5.6-6.1h198.2c3.1 0 5.6 2.7 5.6 6.1v21.7z"/><path class="redundante1" d="M1071.3 224.5c0 4-3.3 7.3-7.3 7.3s-7.3-3.3-7.3-7.3 3.2-7.3 7.3-7.3c4 0 7.3 3.2 7.3 7.3zM1097.7 280.4c0 3.4-2.5 6.1-5.6 6.1H893.9c-3.1 0-5.6-2.7-5.6-6.1v-21.7c0-3.4 2.5-6.1 5.6-6.1h198.2c3.1 0 5.6 2.7 5.6 6.1v21.7z"/><path class="redundante1" d="M1071.3 269.6c0 4-3.3 7.3-7.3 7.3s-7.3-3.3-7.3-7.3 3.2-7.3 7.3-7.3c4 0 7.3 3.3 7.3 7.3zM1097.7 325.5c0 3.4-2.5 6.1-5.6 6.1H893.9c-3.1 0-5.6-2.7-5.6-6.1v-21.7c0-3.4 2.5-6.1 5.6-6.1h198.2c3.1 0 5.6 2.7 5.6 6.1v21.7z"/><path class="redundante1" d="M1086.1 297.7v34m-14.8-17c0 4-3.3 7.3-7.3 7.3s-7.3-3.3-7.3-7.3 3.2-7.3 7.3-7.3c4 0 7.3 3.3 7.3 7.3z"/><circle class="redundante1" cx="993" cy="146.9" r="6.5"/><path class="redundante1" d="M993 129v11.1m-51.1 6.8h44.4m13.3 0h44.4m53.7-117.8c0 3.4-2.5 6.1-5.6 6.1H893.9c-3.1 0-5.6-2.7-5.6-6.1V7.4c0-3.4 2.5-6.1 5.6-6.1h198.2c3.1 0 5.6 2.7 5.6 6.1v21.7z"/><path class="redundante1" d="M1071.3 18.2c0 4-3.3 7.3-7.3 7.3s-7.3-3.3-7.3-7.3 3.2-7.3 7.3-7.3c4 .1 7.3 3.3 7.3 7.3zM1097.7 74.2c0 3.4-2.5 6.1-5.6 6.1H893.9c-3.1 0-5.6-2.7-5.6-6.1V52.5c0-3.4 2.5-6.1 5.6-6.1h198.2c3.1 0 5.6 2.7 5.6 6.1v21.7z"/><path class="redundante1" d="M1071.3 63.3c0 4-3.3 7.3-7.3 7.3s-7.3-3.3-7.3-7.3 3.2-7.3 7.3-7.3c4 .1 7.3 3.3 7.3 7.3zM1097.7 119.3c0 3.4-2.5 6.1-5.6 6.1H893.9c-3.1 0-5.6-2.7-5.6-6.1V97.6c0-3.4 2.5-6.1 5.6-6.1h198.2c3.1 0 5.6 2.7 5.6 6.1v21.7z"/><path class="redundante1" d="M1071.3 108.4c0 4-3.3 7.3-7.3 7.3s-7.3-3.3-7.3-7.3 3.2-7.3 7.3-7.3c4 .1 7.3 3.3 7.3 7.3z"/><circle id="svg-ico" class="redundante3" cx="549.4" cy="166.2" r="6"/><path id="svg-ico" class="redundante3" d="M260 165.9c0 3.3-2.7 6-6 6s-6-2.7-6-6 2.7-6 6-6c3.3.1 6 2.8 6 6z"/><circle id="svg-ico" class="redundante3" cx="845.6" cy="166.2" r="6"/></svg>